<svg width="160" height="169" viewBox="0 0 160 169" fill="none" xmlns="http://www.w3.org/2000/svg">
<path d="M76.9067 150.71C74.6229 156.229 70.8588 160.458 66.3335 164.242C62.4637 167.477 60.2644 168.513 54.9778 168.746C44.0028 169.232 32.8798 166.061 23.9137 159.696C10.7818 150.372 4.71276 135.825 2.11175 120.453C-2.30785 94.3193 -0.193195 66.4093 12.3043 43.0241C24.8019 19.6389 48.6762 1.58192 75.1515 0.101839C85.8727 -0.490191 96.6573 1.53963 106.786 5.1341C132.056 14.0991 154.577 34.7356 159.23 61.1233C160.52 68.4814 160.329 76.4315 156.755 82.9861C143.835 106.794 101.162 95.3342 86.3591 118.043C80.1632 127.6 81.284 140.181 76.9067 150.71Z" fill="#C9E7F2" fill-opacity="0.5"/>
<path d="M47.577 95.8838C50.5163 88.1875 46.6677 79.5607 38.9915 76.6217C31.2943 73.6827 22.6666 77.5309 19.7272 85.2062C16.7879 92.9026 20.6365 101.529 28.3127 104.468C35.9888 107.428 44.6165 103.58 47.577 95.8838Z" fill="#002C44"/>
<path d="M70.8388 50.0437C73.7782 42.3473 69.9295 33.7206 62.2533 30.7816C54.556 27.8426 45.9283 31.6908 42.989 39.366C40.0496 47.0624 43.8983 55.6891 51.5744 58.6281C59.2717 61.5883 67.8783 57.7401 70.8388 50.0437Z" fill="#FF7765"/>
<path d="M116.493 46.999C119.432 39.3026 115.584 30.6759 107.908 27.7369C100.21 24.7979 91.5826 28.6461 88.6433 36.3213C85.7039 44.0177 89.5525 52.6445 97.2287 55.5835C104.926 58.5436 113.554 54.6954 116.493 46.999Z" fill="#01B8C1"/>
</svg>
