<svg width="240" height="240" viewBox="0 0 240 240" fill="none" xmlns="http://www.w3.org/2000/svg">
<g clip-path="url(#clip0_261_13546)">
<path d="M183.005 46.9008C169.877 37.8192 153.874 34.2144 136.445 41.376C119.203 48.4512 110.103 65.76 95.1265 75.84C79.1953 86.5728 58.6705 87.36 41.4673 95.6016C29.3089 101.414 20.9665 112.402 18.9745 125.789C15.0769 151.954 29.0065 178.757 53.2225 189.744C68.3281 196.594 85.9297 196.55 101.184 190.19C112.896 185.304 123.091 177.307 134.76 172.21C155.04 163.368 178.56 164.232 197.904 152.861C218.4 140.827 221.079 118.781 216.432 98.2656C212.213 79.6368 200.026 58.6704 183.005 46.9008Z" fill="#CD92E3"/>
<path opacity="0.8" d="M183.005 46.9008C169.877 37.8192 153.874 34.2144 136.445 41.376C119.203 48.4512 110.103 65.76 95.1265 75.84C79.1953 86.5728 58.6705 87.36 41.4673 95.6016C29.3089 101.414 20.9665 112.402 18.9745 125.789C15.0769 151.954 29.0065 178.757 53.2225 189.744C68.3281 196.594 85.9297 196.55 101.184 190.19C112.896 185.304 123.091 177.307 134.76 172.21C155.04 163.368 178.56 164.232 197.904 152.861C218.4 140.827 221.079 118.781 216.432 98.2656C212.213 79.6368 200.026 58.6704 183.005 46.9008Z" fill="white"/>
<path d="M42.7204 142.483H66.2404C66.2404 142.483 73.0948 143.381 70.2628 150.082H76.5028C77.4835 148.721 78.118 147.142 78.3514 145.481C78.5847 143.82 78.4099 142.127 77.842 140.549C75.922 135.038 69.4996 133.997 69.4996 133.997H44.6404C44.6404 133.997 38.5252 136.526 42.7204 142.483Z" fill="#263238" stroke="#263238" stroke-width="1.1326" stroke-linecap="round" stroke-linejoin="round"/>
<path d="M96.2594 175.397C93.7778 167.717 90.1634 161.856 91.0658 153.283C91.4498 149.659 92.9858 146.136 93.125 142.502C93.4562 132.557 81.0626 132.653 77.981 124.176C75.2738 116.731 75.0482 113.573 69.6338 113.347C64.2194 113.122 45.941 111.091 41.6546 112.219C37.3682 113.347 34.205 123.739 30.6146 128.237C27.0242 132.734 22.7186 139.07 25.6514 147.437C28.5842 155.803 32.6402 166.819 33.077 176.299C33.5138 185.779 33.5282 194.798 33.5282 194.798H98.2898C98.2898 194.798 98.741 183.067 96.2594 175.397ZM68.0546 148.997H50.9042C49.3177 148.952 47.8111 148.291 46.7047 147.153C45.5983 146.015 44.9793 144.49 44.9793 142.903C44.9793 141.316 45.5983 139.792 46.7047 138.654C47.8111 137.516 49.3177 136.854 50.9042 136.81H68.0546C69.6412 136.854 71.1478 137.516 72.2542 138.654C73.3606 139.792 73.9796 141.316 73.9796 142.903C73.9796 144.49 73.3606 146.015 72.2542 147.153C71.1478 148.291 69.6412 148.952 68.0546 148.997Z" fill="#CD92E3" stroke="#263238" stroke-width="1.1326" stroke-linecap="round" stroke-linejoin="round"/>
<path d="M33.0479 124.349C37.2239 126.528 43.3295 130.795 46.9679 138.269C48.0648 137.326 49.4625 136.807 50.9087 136.805H68.059C68.8993 136.806 69.73 136.982 70.4985 137.322C71.267 137.661 71.9565 138.157 72.523 138.778L72.6527 138.864C74.5727 135.576 77.3327 131.366 80.4623 128.054C79.3702 126.951 78.5258 125.627 77.9855 124.171C75.2783 116.726 75.0527 113.568 69.6383 113.342C64.2239 113.117 45.9455 111.086 41.6591 112.214C38.3567 113.083 35.7263 119.419 33.0479 124.349Z" fill="#263238" stroke="#263238" stroke-width="1.1326" stroke-linecap="round" stroke-linejoin="round"/>
<path d="M44.8942 195.024H92.2606C91.9198 190.738 91.0894 180.624 90.3886 174.72C89.4862 167.04 89.035 162.082 86.779 159.84C84.523 157.598 70.3102 146.966 66.2398 146.515C66.2398 146.515 54.5038 145.613 50.8798 146.29C47.2558 146.966 39.8398 158.698 39.8398 160.728C39.8398 162.653 45.1198 182.4 44.8942 195.024Z" fill="#263238" stroke="#263238" stroke-width="1.1326" stroke-linecap="round" stroke-linejoin="round"/>
<path d="M35.5586 174.269C34.8818 164.789 27.6626 142.906 26.0834 139.296C25.6742 138.15 25.6157 136.909 25.9154 135.73C24.3432 139.449 24.242 143.626 25.6322 147.418C28.565 155.765 32.6258 166.819 33.077 176.299C33.5282 185.779 33.5282 194.798 33.5282 194.798H35.405C35.6018 190.08 36.1202 182.107 35.5586 174.269Z" fill="#263238" stroke="#263238" stroke-width="1.1326" stroke-linecap="round" stroke-linejoin="round"/>
<path d="M75.0483 160.277C72.3411 155.99 63.5283 158.021 56.5443 157.795C49.5603 157.57 48.8643 159.6 48.8643 163.435C48.8643 166.694 52.2867 188.362 53.3139 194.798H82.0803C82.0803 182.198 77.6307 164.366 75.0483 160.277Z" fill="#CD92E3" stroke="#263238" stroke-width="1.1326" stroke-linecap="round" stroke-linejoin="round"/>
<path d="M65.8608 157.522C62.9328 157.579 59.736 157.872 56.832 157.805C58.0656 161.798 62.8896 178.368 63.3072 194.798H72.3696C71.904 187.301 70.4064 170.832 65.8608 157.522Z" fill="white" stroke="#263238" stroke-width="1.1326" stroke-linecap="round" stroke-linejoin="round"/>
<path d="M127.422 40.5542L75.8838 36.9051L71.1346 103.98L122.673 107.629L127.422 40.5542Z" fill="#CD92E3"/>
<path opacity="0.5" d="M75.8849 36.9091L71.1357 103.984L122.674 107.633L127.423 40.5582L75.8849 36.9091Z" fill="white"/>
<path d="M113.697 88.9056L82.7709 86.4C82.5515 86.3824 82.3378 86.3218 82.1418 86.2216C81.9459 86.1214 81.7716 85.9835 81.629 85.8159C81.4863 85.6483 81.3781 85.4542 81.3105 85.2448C81.2429 85.0353 81.2172 84.8146 81.2349 84.5952L83.5197 55.8816C83.5553 55.4394 83.7647 55.0294 84.1021 54.7414C84.4396 54.4535 84.8775 54.3111 85.3197 54.3456L116.246 56.8368C116.688 56.8723 117.098 57.0818 117.386 57.4192C117.674 57.7567 117.817 58.1946 117.782 58.6368L115.502 87.36C115.486 87.5802 115.426 87.7951 115.326 87.9921C115.227 88.1891 115.089 88.3645 114.921 88.5082C114.753 88.6518 114.559 88.7609 114.349 88.8291C114.139 88.8973 113.917 88.9233 113.697 88.9056Z" fill="white"/>
<path opacity="0.08" d="M100.622 74.2752C100.586 73.9612 100.651 73.6438 100.809 73.3699C100.967 73.0961 101.209 72.8802 101.499 72.7543C101.789 72.6283 102.111 72.5989 102.419 72.6704C102.727 72.7419 103.004 72.9106 103.209 73.1514C103.413 73.3923 103.535 73.6926 103.556 74.008C103.577 74.3234 103.496 74.6372 103.325 74.9031C103.154 75.1689 102.902 75.3727 102.606 75.4844C102.311 75.5961 101.987 75.6097 101.683 75.5232C101.403 75.4429 101.153 75.2816 100.964 75.0596C100.775 74.8375 100.656 74.5646 100.622 74.2752Z" fill="black"/>
<path opacity="0.08" d="M95.2992 73.8528C95.2621 73.5385 95.3271 73.2207 95.4847 72.9462C95.6422 72.6718 95.8839 72.4553 96.1741 72.3289C96.4642 72.2025 96.7873 72.1728 97.0956 72.2443C97.4038 72.3158 97.6809 72.4847 97.8858 72.7258C98.0907 72.967 98.2124 73.2678 98.2331 73.5836C98.2538 73.8993 98.1723 74.2134 98.0006 74.4792C97.8289 74.7451 97.5762 74.9486 97.2799 75.0597C96.9836 75.1708 96.6594 75.1835 96.3553 75.096C96.0761 75.0163 95.8268 74.8557 95.6388 74.6345C95.4509 74.4132 95.3327 74.1412 95.2992 73.8528Z" fill="black"/>
<path opacity="0.08" d="M85.2333 78.4896C85.1625 77.8911 85.2862 77.2858 85.586 76.763C85.8857 76.2402 86.3458 75.8277 86.8981 75.5865C87.4503 75.3453 88.0656 75.2882 88.6528 75.4236C89.24 75.559 89.7681 75.8798 90.159 76.3384C90.5499 76.7971 90.7829 77.3694 90.8235 77.9707C90.8641 78.572 90.7101 79.1704 90.3844 79.6774C90.0587 80.1845 89.5785 80.5733 89.0148 80.7864C88.4511 80.9995 87.8338 81.0256 87.2541 80.8608C86.7211 80.7087 86.245 80.4024 85.8854 79.9805C85.5259 79.5587 85.299 79.04 85.2333 78.4896Z" fill="black"/>
<path opacity="0.08" d="M106.858 80.2704C106.788 79.6731 106.912 79.0692 107.212 78.5478C107.511 78.0264 107.97 77.6151 108.522 77.3748C109.073 77.1344 109.687 77.0777 110.273 77.213C110.859 77.3483 111.386 77.6684 111.776 78.1261C112.166 78.5838 112.398 79.1548 112.439 79.7547C112.48 80.3547 112.326 80.9519 112.001 81.458C111.677 81.9641 111.198 82.3525 110.636 82.5656C110.073 82.7787 109.457 82.8054 108.879 82.6416C108.346 82.4894 107.87 82.1832 107.51 81.7613C107.15 81.3395 106.924 80.8208 106.858 80.2704Z" fill="black"/>
<path opacity="0.08" d="M102.437 80.6112L100.042 80.4192L100.234 78.0192L97.9199 77.8368L97.7279 80.232L95.3279 80.04L95.1455 82.3536L97.5407 82.5456L97.3487 84.9456L99.6623 85.128L99.8543 82.7328L102.254 82.9248L102.437 80.6112Z" fill="black"/>
<path opacity="0.08" d="M112.406 71.3328L86.8414 69.2304C86.6037 69.212 86.3827 69.1011 86.2257 68.9217C86.0686 68.7423 85.9881 68.5085 86.0014 68.2704L86.8174 58.3536C86.8359 58.1155 86.9465 57.894 87.1258 57.7362C87.3051 57.5784 87.5389 57.4968 87.7774 57.5088L113.342 59.616C113.58 59.6333 113.802 59.7437 113.959 59.9235C114.117 60.1032 114.197 60.3376 114.182 60.576L113.347 70.56C113.322 70.7859 113.209 70.993 113.033 71.1373C112.858 71.2816 112.633 71.3517 112.406 71.3328Z" fill="black"/>
<path opacity="0.7" d="M78.4513 40.6224L74.0977 100.675L120.235 104.035L124.589 43.9872L78.4513 40.6224ZM118.32 101.102L76.4065 98.064L80.3617 43.512L122.28 46.56L118.32 101.102Z" fill="white"/>
<path d="M204.346 53.7336L152.95 59.0177L159.827 125.908L211.224 120.624L204.346 53.7336Z" fill="#CD92E3"/>
<path opacity="0.5" d="M204.346 53.7336L152.95 59.0177L159.827 125.908L211.224 120.624L204.346 53.7336Z" fill="white"/>
<path d="M194.628 64.3303L164.324 67.4191C163.396 67.5137 162.72 68.343 162.815 69.2713L167.303 113.299C167.397 114.228 168.227 114.903 169.155 114.809L199.459 111.72C200.387 111.625 201.063 110.796 200.968 109.868L196.48 65.8398C196.386 64.9115 195.557 64.2356 194.628 64.3303Z" fill="white"/>
<path opacity="0.08" d="M184.008 95.5776C183.903 95.2327 183.911 94.863 184.032 94.5233C184.153 94.1835 184.38 93.8917 184.68 93.691C184.979 93.4902 185.335 93.3913 185.696 93.4087C186.056 93.4261 186.401 93.5589 186.68 93.7876C186.959 94.0163 187.157 94.3287 187.244 94.6785C187.332 95.0283 187.305 95.3971 187.166 95.7302C187.028 96.0634 186.787 96.3432 186.477 96.5284C186.168 96.7135 185.807 96.7942 185.448 96.7584C185.119 96.7243 184.807 96.5942 184.551 96.3843C184.295 96.1744 184.106 95.8939 184.008 95.5776Z" fill="black"/>
<path opacity="0.08" d="M177.936 96.1968C177.83 95.8519 177.839 95.4822 177.96 95.1425C178.081 94.8027 178.308 94.5109 178.607 94.3101C178.907 94.1094 179.263 94.0104 179.623 94.0278C179.984 94.0452 180.329 94.1781 180.608 94.4068C180.886 94.6355 181.084 94.9478 181.172 95.2977C181.26 95.6475 181.232 96.0163 181.094 96.3494C180.956 96.6826 180.714 96.9624 180.405 97.1476C180.095 97.3327 179.735 97.4134 179.376 97.3776C179.046 97.3441 178.734 97.2142 178.478 97.0042C178.222 96.7942 178.033 96.5134 177.936 96.1968Z" fill="black"/>
<path opacity="0.08" d="M181.349 99.5856C181.243 99.2407 181.252 98.871 181.373 98.5313C181.494 98.1915 181.721 97.8997 182.02 97.699C182.32 97.4982 182.676 97.3993 183.036 97.4167C183.397 97.4341 183.742 97.5669 184.021 97.7956C184.3 98.0243 184.497 98.3366 184.585 98.6865C184.673 99.0363 184.645 99.4051 184.507 99.7382C184.369 100.071 184.127 100.351 183.818 100.536C183.508 100.722 183.148 100.802 182.789 100.766C182.459 100.734 182.146 100.604 181.89 100.394C181.634 100.184 181.446 99.9025 181.349 99.5856Z" fill="black"/>
<path opacity="0.08" d="M197.438 100.248L194.707 100.526L194.429 97.7904L191.789 98.0592L192.067 100.795L189.331 101.074L189.6 103.714L192.336 103.435L192.614 106.171L195.254 105.902L194.976 103.166L197.712 102.888L197.438 100.248Z" fill="black"/>
<path opacity="0.08" d="M177.475 102.283L174.739 102.562L174.461 99.8304L171.821 100.099L172.099 102.83L169.363 103.109L169.632 105.749L172.368 105.47L172.646 108.206L175.286 107.938L175.008 105.202L177.744 104.923L177.475 102.283Z" fill="black"/>
<path opacity="0.08" d="M191.822 68.0869L167.836 70.5318C167.353 70.581 167.002 71.0121 167.051 71.4948L169.168 92.2623C169.217 92.745 169.648 93.0963 170.131 93.0471L194.117 90.6023C194.6 90.5531 194.951 90.1219 194.902 89.6393L192.785 68.8717C192.736 68.3891 192.305 68.0377 191.822 68.0869Z" fill="black"/>
<path opacity="0.08" d="M187.007 106.079L180.389 106.753L180.759 110.387L187.378 109.712L187.007 106.079Z" fill="black"/>
<path d="M107.612 153.398C107.612 153.398 109.69 154.325 111.768 158.021C113.847 161.717 143.127 178.339 143.592 182.981C144.058 187.622 145.637 188.318 139.628 189.221C133.618 190.123 125.175 183.941 115.004 178.373C104.832 172.805 99.9844 173.28 99.9844 173.28L107.612 153.398Z" fill="white" stroke="#263238" stroke-width="1.1326" stroke-linecap="round" stroke-linejoin="round"/>
<path d="M137.54 177.955C137.54 177.955 131.07 178.79 128.775 181.502C126.481 184.214 130.018 188.453 132.212 189.254C134.406 190.056 141.087 189.432 142.964 185.894C144.841 182.357 143.382 181.512 140.876 179.654" fill="white"/>
<path d="M137.54 177.955C137.54 177.955 131.07 178.79 128.775 181.502C126.481 184.214 130.018 188.453 132.212 189.254C134.406 190.056 141.087 189.432 142.964 185.894C144.841 182.357 143.382 181.512 140.876 179.654" stroke="#263238" stroke-width="1.1326" stroke-linecap="round" stroke-linejoin="round"/>
<path d="M132.159 183.974C132.159 183.974 129.759 185.794 129.207 186.302C128.655 186.811 127.844 189.029 127.287 189.422C126.73 189.816 124.676 190.162 124.446 190.728C124.215 191.294 126.265 191.923 127.854 191.866C129.442 191.808 130.69 189.946 132.222 189.254C133.214 188.833 134.27 188.583 135.346 188.515C135.346 188.515 136.762 185.395 136.196 184.147C135.63 182.899 133.441 183.067 132.159 183.974Z" fill="white" stroke="#263238" stroke-width="1.1326" stroke-linecap="round" stroke-linejoin="round"/>
<path d="M137.852 180.624C137.345 180.533 136.827 180.533 136.321 180.624C135.091 180.799 133.876 181.059 132.682 181.402C132.092 181.699 131.18 185.448 130.738 187.219C130.297 188.99 128.545 192.182 129.298 192.331C130.052 192.48 131.909 192.898 132.226 191.76C132.74 189.946 133.877 186.571 133.877 186.571C133.877 186.571 132.989 189.821 133.431 190.411C133.873 191.002 140.962 190.853 141.85 190.555C142.738 190.258 144.802 186.422 144.951 184.354C145.061 182.592 140.084 181.051 137.852 180.624Z" fill="white" stroke="#263238" stroke-width="1.1326" stroke-linecap="round" stroke-linejoin="round"/>
<path d="M136.469 190.67L138.288 183.576" stroke="#263238" stroke-width="1.1326" stroke-linecap="round" stroke-linejoin="round"/>
<path d="M140.328 190.56L142.032 183.864" stroke="#263238" stroke-width="1.1326" stroke-linecap="round" stroke-linejoin="round"/>
<path d="M133.862 186.562L134.765 183.35" stroke="#263238" stroke-width="1.1326" stroke-linecap="round" stroke-linejoin="round"/>
<path d="M120.322 163.104C113.17 156.749 105.13 148.152 95.8658 145.066C93.4736 144.296 91.2556 143.065 89.3378 141.442C89.3378 141.442 82.8242 136.824 78.701 136.598C73.9826 136.334 70.3394 141.326 68.141 144.907C58.3682 160.877 57.101 179.347 56.7266 197.707H99.9842C99.9842 197.707 97.469 193.814 100.215 182.602C100.732 180.469 101.4 178.376 102.211 176.338C103.013 176.683 103.896 177.053 104.837 177.442C108.763 179.059 117.797 184.162 117.797 184.162L127.959 169.421C127.959 169.421 122.4 164.957 120.322 163.104Z" fill="white" stroke="#263238" stroke-width="1.1326" stroke-linecap="round" stroke-linejoin="round"/>
<path d="M80.8611 139.613C79.5939 137.352 76.8387 135.024 72.5235 137.51C66.9363 140.726 50.3235 173.899 49.1811 178.934C48.0387 183.97 71.3763 187.2 80.5299 187.2C86.1975 187.19 91.8609 186.89 97.4979 186.302L99.2979 187.426C99.2979 187.426 99.2979 191.774 100.901 192.226C102.504 192.677 107.54 192.706 109.138 191.77C110.736 190.834 110.285 188.338 110.285 188.338C110.285 188.338 111.428 193.373 113.256 193.829C113.863 193.987 114.498 193.997 115.109 193.858C115.253 193.823 115.386 193.752 115.494 193.651C115.602 193.55 115.682 193.422 115.726 193.281C115.77 193.14 115.776 192.989 115.745 192.845C115.713 192.7 115.645 192.566 115.546 192.456L115.066 191.885L111.903 184.906C111.903 184.906 111.029 181.133 109.887 181.133C108.744 181.133 99.5475 181.013 99.5475 181.013C99.5475 181.013 83.9859 179.184 77.3475 177.35C70.7091 175.517 67.2003 172.958 67.2003 172.958L79.9299 152.194" fill="white"/>
<mask id="mask0_261_13546" style="mask-type:luminance" maskUnits="userSpaceOnUse" x="49" y="136" width="67" height="58">
<path d="M80.8611 139.613C79.5939 137.352 76.8387 135.024 72.5235 137.51C66.9363 140.726 50.3235 173.899 49.1811 178.934C48.0387 183.97 71.3763 187.2 80.5299 187.2C86.1975 187.19 91.8609 186.89 97.4979 186.302L99.2979 187.426C99.2979 187.426 99.2979 191.774 100.901 192.226C102.504 192.677 107.54 192.706 109.138 191.77C110.736 190.834 110.285 188.338 110.285 188.338C110.285 188.338 111.428 193.373 113.256 193.829C113.863 193.987 114.498 193.997 115.109 193.858C115.253 193.823 115.386 193.752 115.494 193.651C115.602 193.55 115.682 193.422 115.726 193.281C115.77 193.14 115.776 192.989 115.745 192.845C115.713 192.7 115.645 192.566 115.546 192.456L115.066 191.885L111.903 184.906C111.903 184.906 111.029 181.133 109.887 181.133C108.744 181.133 99.5475 181.013 99.5475 181.013C99.5475 181.013 83.9859 179.184 77.3475 177.35C70.7091 175.517 67.2003 172.958 67.2003 172.958L79.9299 152.194" fill="white"/>
</mask>
<g mask="url(#mask0_261_13546)">
<path d="M97.095 184.373C93.6582 183.97 83.1366 184.171 69.5766 182.347C56.0166 180.523 52.7766 177.288 55.4118 176.482C58.047 175.675 66.9318 173.851 67.5558 173.851C68.1798 173.851 56.223 171.624 56.223 171.624L62.6598 151.267C56.4198 162.13 49.8822 175.843 49.1814 178.934C48.0342 183.97 71.3766 187.2 80.5302 187.2C86.1978 187.19 91.8612 186.89 97.4982 186.302L99.2982 187.426C99.2982 187.426 99.2982 191.774 100.901 192.226C101.374 192.345 101.856 192.42 102.341 192.451C103.003 191.89 103.445 191.113 103.589 190.258C103.93 188.098 100.537 184.8 97.095 184.373Z" fill="#CD92E3"/>
<path opacity="0.5" d="M97.095 184.373C93.6582 183.97 83.1366 184.171 69.5766 182.347C56.0166 180.523 52.7766 177.288 55.4118 176.482C58.047 175.675 66.9318 173.851 67.5558 173.851C68.1798 173.851 56.223 171.624 56.223 171.624L62.6598 151.267C56.4198 162.13 49.8822 175.843 49.1814 178.934C48.0342 183.97 71.3766 187.2 80.5302 187.2C86.1978 187.19 91.8612 186.89 97.4982 186.302L99.2982 187.426C99.2982 187.426 99.2982 191.774 100.901 192.226C101.374 192.345 101.856 192.42 102.341 192.451C103.003 191.89 103.445 191.113 103.589 190.258C103.93 188.098 100.537 184.8 97.095 184.373Z" fill="white"/>
</g>
<path d="M80.8611 139.613C79.5939 137.352 76.8387 135.024 72.5235 137.51C66.9363 140.726 50.3235 173.899 49.1811 178.934C48.0387 183.97 71.3763 187.2 80.5299 187.2C86.1975 187.19 91.8609 186.89 97.4979 186.302L99.2979 187.426C99.2979 187.426 99.2979 191.774 100.901 192.226C102.504 192.677 107.54 192.706 109.138 191.77C110.736 190.834 110.285 188.338 110.285 188.338C110.285 188.338 111.428 193.373 113.256 193.829C113.863 193.987 114.498 193.997 115.109 193.858C115.253 193.823 115.386 193.752 115.494 193.651C115.602 193.55 115.682 193.422 115.726 193.281C115.77 193.14 115.776 192.989 115.745 192.845C115.713 192.7 115.645 192.566 115.546 192.456L115.066 191.885L111.903 184.906C111.903 184.906 111.029 181.133 109.887 181.133C108.744 181.133 99.5475 181.013 99.5475 181.013C99.5475 181.013 83.9859 179.184 77.3475 177.35C70.7091 175.517 67.2003 172.958 67.2003 172.958L79.9299 152.194" stroke="#263238" stroke-width="1.1326" stroke-linecap="round" stroke-linejoin="round"/>
<path d="M106.671 184.829C106.671 184.829 108.37 189.811 108.37 190.627C108.345 191.193 108.206 191.748 107.962 192.259" stroke="#263238" stroke-width="1.1326" stroke-linecap="round" stroke-linejoin="round"/>
<path d="M103.752 185.597C103.752 185.597 105.379 190.219 105.518 191.17C105.573 191.412 105.565 191.664 105.493 191.903C105.422 192.141 105.29 192.356 105.11 192.528" stroke="#263238" stroke-width="1.1326" stroke-linecap="round" stroke-linejoin="round"/>
<path d="M110.285 188.318L109.186 184.104" stroke="#263238" stroke-width="1.1326" stroke-linecap="round" stroke-linejoin="round"/>
<path d="M99.2979 187.402L101.573 188.179C101.573 188.179 102.936 188.861 101.847 189.811" fill="white"/>
<path d="M99.2979 187.402L101.573 188.179C101.573 188.179 102.936 188.861 101.847 189.811" stroke="#263238" stroke-width="1.1326" stroke-linecap="round" stroke-linejoin="round"/>
<path d="M81.73 140.203C81.73 140.203 80.5108 136.123 75.6148 135.989C70.7188 135.854 67.2004 141.562 64.8772 144.96C62.554 148.358 56.4532 161.539 55.7572 163.171C55.0612 164.803 51.1396 171.869 51.1396 171.869C51.1396 171.869 53.1748 173.789 58.0708 173.789H68.8085C68.8085 173.789 69.2116 173.65 69.4852 172.43C69.6253 171.896 69.7169 171.349 69.7588 170.798L81.9892 150.547" fill="white"/>
<path d="M81.73 140.203C81.73 140.203 80.5108 136.123 75.6148 135.989C70.7188 135.854 67.2004 141.562 64.8772 144.96C62.554 148.358 56.4532 161.539 55.7572 163.171C55.0612 164.803 51.1396 171.869 51.1396 171.869C51.1396 171.869 53.1748 173.789 58.0708 173.789H68.8085C68.8085 173.789 69.2116 173.65 69.4852 172.43C69.6253 171.896 69.7169 171.349 69.7588 170.798L81.9892 150.547" stroke="#263238" stroke-width="1.1326" stroke-linecap="round" stroke-linejoin="round"/>
<path d="M115.119 187.454L116.089 189.883" stroke="#263238" stroke-width="1.1326" stroke-linecap="round" stroke-linejoin="round"/>
<path d="M115.849 185.755L117.063 188.669" stroke="#263238" stroke-width="1.1326" stroke-linecap="round" stroke-linejoin="round"/>
<path d="M107.492 166.267L102.212 176.333L110.415 168.984" stroke="#263238" stroke-width="1.1326" stroke-linecap="round" stroke-linejoin="round"/>
<path d="M95.8655 145.066C93.4733 144.296 91.2554 143.065 89.3375 141.442C89.3375 141.442 88.2623 140.678 86.7119 139.762C87.5711 143.971 90.1967 156.082 92.2607 158.131C94.2431 160.114 98.4431 151.642 100.114 146.88C98.7475 146.164 97.3271 145.558 95.8655 145.066Z" fill="white" stroke="#263238" stroke-width="1.1326" stroke-linecap="round" stroke-linejoin="round"/>
<path d="M109.013 137.218C112.218 137.218 114.816 133.887 114.816 129.778C114.816 125.669 112.218 122.338 109.013 122.338C105.808 122.338 103.21 125.669 103.21 129.778C103.21 133.887 105.808 137.218 109.013 137.218Z" fill="white" stroke="#263238" stroke-width="1.1326" stroke-linecap="round" stroke-linejoin="round"/>
<path d="M89.6163 128.112C89.6163 128.112 88.7811 137.554 89.3379 141.442C89.8947 145.33 92.1123 157.546 93.7779 154.214C95.4435 150.883 101.28 140.054 101.28 140.054C101.28 140.054 91.2819 132.557 89.6163 128.112Z" fill="white"/>
<mask id="mask1_261_13546" style="mask-type:luminance" maskUnits="userSpaceOnUse" x="89" y="128" width="13" height="27">
<path d="M89.6163 128.112C89.6163 128.112 88.7811 137.554 89.3379 141.442C89.8947 145.33 92.1123 157.546 93.7779 154.214C95.4435 150.883 101.28 140.054 101.28 140.054C101.28 140.054 91.2819 132.557 89.6163 128.112Z" fill="white"/>
</mask>
<g mask="url(#mask1_261_13546)">
<path d="M89.6163 128.112C89.6163 128.112 88.7811 137.554 89.3379 141.442C89.5539 142.978 90.0387 145.814 90.6387 148.478L97.5027 144.715L100.383 141.691L101.261 140.054C101.261 140.054 91.2819 132.557 89.6163 128.112Z" fill="#CD92E3"/>
<path opacity="0.5" d="M89.6163 128.112C89.6163 128.112 88.7811 137.554 89.3379 141.442C89.5539 142.978 90.0387 145.814 90.6387 148.478L97.5027 144.715L100.383 141.691L101.261 140.054C101.261 140.054 91.2819 132.557 89.6163 128.112Z" fill="white"/>
</g>
<path d="M89.6163 128.112C89.6163 128.112 88.7811 137.554 89.3379 141.442C89.8947 145.33 92.1123 157.546 93.7779 154.214C95.4435 150.883 101.28 140.054 101.28 140.054C101.28 140.054 91.2819 132.557 89.6163 128.112Z" stroke="#263238" stroke-width="1.1326" stroke-linecap="round" stroke-linejoin="round"/>
<path d="M87.9455 126.446C87.9455 126.446 86.0254 114.782 87.6718 110.338C89.3182 105.893 95.4478 103.675 102.667 105.898C109.886 108.12 114.053 110.338 115.147 115.339C116.241 120.341 112.373 123.394 112.373 123.394C112.373 123.394 109.037 115.618 105.173 114.782C101.309 113.947 97.675 113.674 98.2318 116.448C98.7886 119.222 99.067 122.837 97.4014 124.224C95.7358 125.611 95.4575 126.168 94.6223 128.39C93.7871 130.613 91.2911 132.835 89.3423 130.31C87.3935 127.786 87.9455 126.446 87.9455 126.446Z" fill="#263238" stroke="#263238" stroke-width="1.1326" stroke-linecap="round" stroke-linejoin="round"/>
<path d="M89.8902 127.277C89.8902 127.277 89.3382 123.667 86.8374 125.059C84.3366 126.451 87.9462 131.722 87.9462 131.722C88.3486 135.469 89.7918 139.029 92.1126 141.998C96.0006 146.995 102.721 147.672 106.561 144.48C110.881 140.89 112.945 124.488 112.945 124.488C112.945 124.488 114.61 122.266 111.025 116.712C107.439 111.158 95.1846 111.158 94.3638 113.381C93.543 115.603 96.8646 120.043 96.0294 121.709C95.1942 123.374 92.6982 121.435 92.1414 124.488C91.5846 127.541 91.0038 129.778 89.8902 127.277Z" fill="white"/>
<mask id="mask2_261_13546" style="mask-type:luminance" maskUnits="userSpaceOnUse" x="85" y="111" width="29" height="36">
<path d="M89.8902 127.277C89.8902 127.277 89.3382 123.667 86.8374 125.059C84.3366 126.451 87.9462 131.722 87.9462 131.722C88.3486 135.469 89.7918 139.029 92.1126 141.998C96.0006 146.995 102.721 147.672 106.561 144.48C110.881 140.89 112.945 124.488 112.945 124.488C112.945 124.488 114.61 122.266 111.025 116.712C107.439 111.158 95.1846 111.158 94.3638 113.381C93.543 115.603 96.8646 120.043 96.0294 121.709C95.1942 123.374 92.6982 121.435 92.1414 124.488C91.5846 127.541 91.0038 129.778 89.8902 127.277Z" fill="white"/>
</mask>
<g mask="url(#mask2_261_13546)">
<path d="M110.996 116.727C107.386 111.173 95.1558 111.173 94.335 113.395C93.5142 115.618 96.8358 120.058 96.0006 121.723C95.1654 123.389 92.6694 121.45 92.1126 124.503C91.5558 127.555 91.0038 129.783 89.8902 127.277C89.8902 127.277 89.3382 123.667 86.8374 125.059C84.3366 126.451 87.9462 131.722 87.9462 131.722C88.3486 135.469 89.7918 139.029 92.1126 141.999C93.2768 143.536 94.8221 144.744 96.5958 145.501C98.3695 146.259 100.31 146.541 102.226 146.319C100.567 146.067 98.9668 145.517 97.503 144.696C93.663 142.469 92.6454 138.221 93.8598 133.565C95.0742 128.909 97.9062 117.581 99.3318 116.429C100.757 115.277 101.732 116.165 104.785 118.997C107.837 121.829 109.441 121.627 109.441 121.627L112.565 119.607C112.128 118.602 111.603 117.638 110.996 116.727Z" fill="#CD92E3"/>
<path opacity="0.5" d="M110.996 116.727C107.386 111.173 95.1558 111.173 94.335 113.395C93.5142 115.618 96.8358 120.058 96.0006 121.723C95.1654 123.389 92.6694 121.45 92.1126 124.503C91.5558 127.555 91.0038 129.783 89.8902 127.277C89.8902 127.277 89.3382 123.667 86.8374 125.059C84.3366 126.451 87.9462 131.722 87.9462 131.722C88.3486 135.469 89.7918 139.029 92.1126 141.999C93.2768 143.536 94.8221 144.744 96.5958 145.501C98.3695 146.259 100.31 146.541 102.226 146.319C100.567 146.067 98.9668 145.517 97.503 144.696C93.663 142.469 92.6454 138.221 93.8598 133.565C95.0742 128.909 97.9062 117.581 99.3318 116.429C100.757 115.277 101.732 116.165 104.785 118.997C107.837 121.829 109.441 121.627 109.441 121.627L112.565 119.607C112.128 118.602 111.603 117.638 110.996 116.727Z" fill="white"/>
</g>
<path d="M89.8902 127.277C89.8902 127.277 89.3382 123.667 86.8374 125.059C84.3366 126.451 87.9462 131.722 87.9462 131.722C88.3486 135.469 89.7918 139.029 92.1126 141.998C96.0006 146.995 102.721 147.672 106.561 144.48C110.881 140.89 112.945 124.488 112.945 124.488C112.945 124.488 114.61 122.266 111.025 116.712C107.439 111.158 95.1846 111.158 94.3638 113.381C93.543 115.603 96.8646 120.043 96.0294 121.709C95.1942 123.374 92.6982 121.435 92.1414 124.488C91.5846 127.541 91.0038 129.778 89.8902 127.277Z" stroke="#263238" stroke-width="1.1326" stroke-linecap="round" stroke-linejoin="round"/>
<path d="M100.507 136.886C96.9985 136.123 96.2354 133.526 96.2354 133.526" stroke="#263238" stroke-width="1.1326" stroke-linecap="round" stroke-linejoin="round"/>
<path d="M101.424 129.562C99.7442 127.886 98.2178 127.733 98.2178 127.733" stroke="#263238" stroke-width="1.1326" stroke-linecap="round" stroke-linejoin="round"/>
<path d="M97.1525 133.224L95.0117 133.685" stroke="#263238" stroke-width="1.1326" stroke-linecap="round" stroke-linejoin="round"/>
<path d="M96.2353 133.531C95.8969 133.986 95.6547 134.505 95.5235 135.056C95.3923 135.607 95.3748 136.179 95.4721 136.738C95.7553 138.629 97.9009 139.094 97.9009 139.094C97.9009 139.094 98.0641 136.584 99.2881 136.738C99.2881 136.738 96.8449 135.36 96.2353 133.531Z" stroke="#263238" stroke-width="1.1326" stroke-linecap="round" stroke-linejoin="round"/>
<path d="M96.0005 133.642C96.0005 133.642 95.6693 136.814 97.9205 137.65" stroke="#263238" stroke-width="0.566302" stroke-linecap="round" stroke-linejoin="round"/>
<path d="M108.245 125.026C108.245 125.026 105.932 127.339 105.932 129.859C105.932 132.379 108.245 134.064 106.354 134.698C104.463 135.331 103.829 134.904 103.829 134.904" stroke="#263238" stroke-width="1.1326" stroke-linecap="round" stroke-linejoin="round"/>
<path d="M101.376 127.704C101.179 128.482 100.896 128.136 100.507 128.035C100.118 127.934 99.7441 128.122 99.9409 127.344C100.138 126.566 100.618 126.01 101.011 126.11C101.405 126.211 101.568 126.922 101.376 127.704Z" fill="#263238"/>
<path d="M109.363 128.962C109.167 129.744 108.687 130.296 108.293 130.195C107.899 130.094 107.731 129.384 107.928 128.602C108.125 127.819 108.605 127.272 108.999 127.368C109.392 127.464 109.56 128.184 109.363 128.962Z" fill="#263238"/>
<path d="M98.3672 122.506C98.3672 122.506 101.281 121.603 104.084 125.424" stroke="#263238" stroke-width="1.1326" stroke-linecap="round" stroke-linejoin="round"/>
<path d="M109.085 124.397C109.085 124.397 111.187 123.557 111.61 125.659" stroke="#263238" stroke-width="1.1326" stroke-linecap="round" stroke-linejoin="round"/>
<path d="M94.3346 113.395C94.3346 113.395 95.7218 115.891 99.3314 116.448C102.941 117.005 107.386 116.448 108.221 119.506C109.056 122.563 112.939 126.168 117.384 124.224C121.829 122.28 122.381 113.664 119.607 110.064C116.832 106.464 113.496 107.006 110.165 105.619C106.834 104.232 106.834 101.731 101.832 101.731C96.8305 101.731 91.0034 106.45 94.3346 109.229" fill="#263238"/>
<path d="M94.3346 113.395C94.3346 113.395 95.7218 115.891 99.3314 116.448C102.941 117.005 107.386 116.448 108.221 119.506C109.056 122.563 112.939 126.168 117.384 124.224C121.829 122.28 122.381 113.664 119.607 110.064C116.832 106.464 113.496 107.006 110.165 105.619C106.834 104.232 106.834 101.731 101.832 101.731C96.8305 101.731 91.0034 106.45 94.3346 109.229" stroke="#263238" stroke-width="1.1326" stroke-linecap="round" stroke-linejoin="round"/>
<path d="M88.5552 134.338C91.7602 134.338 94.3584 131.007 94.3584 126.898C94.3584 122.789 91.7602 119.458 88.5552 119.458C85.3501 119.458 82.752 122.789 82.752 126.898C82.752 131.007 85.3501 134.338 88.5552 134.338Z" fill="white" stroke="#263238" stroke-width="1.1326" stroke-linecap="round" stroke-linejoin="round"/>
<path d="M87.6436 132.302C89.9553 132.302 91.8292 129.898 91.8292 126.931C91.8292 123.965 89.9553 121.56 87.6436 121.56C85.332 121.56 83.458 123.965 83.458 126.931C83.458 129.898 85.332 132.302 87.6436 132.302Z" fill="#263238" stroke="#263238" stroke-width="1.1326" stroke-linecap="round" stroke-linejoin="round"/>
<path d="M86.8372 126.144C86.5749 126.145 86.3211 126.051 86.1233 125.879C85.9254 125.706 85.797 125.468 85.762 125.208C85.4765 122.655 85.4845 120.079 85.786 117.528C85.8024 117.386 85.8466 117.249 85.916 117.124C85.9854 116.999 86.0787 116.89 86.1906 116.801C86.3025 116.712 86.4307 116.646 86.568 116.607C86.7053 116.568 86.849 116.556 86.9908 116.573C87.1327 116.589 87.2699 116.633 87.3946 116.703C87.5194 116.772 87.6293 116.865 87.718 116.977C87.8066 117.089 87.8724 117.217 87.9116 117.355C87.9507 117.492 87.9624 117.636 87.946 117.778C87.6714 120.151 87.6602 122.548 87.9124 124.925C87.9327 125.066 87.9248 125.21 87.8891 125.348C87.8534 125.486 87.7907 125.616 87.7045 125.73C87.6184 125.844 87.5105 125.939 87.3872 126.011C87.2639 126.083 87.1275 126.13 86.986 126.149C86.9364 126.152 86.8866 126.15 86.8372 126.144Z" fill="white" stroke="#263238" stroke-width="1.1326" stroke-linecap="round" stroke-linejoin="round"/>
<path d="M108.96 105.038C109.333 105.269 109.723 105.47 110.127 105.638C112.133 106.474 114.144 106.598 116.031 107.371C115.989 107.122 115.898 106.884 115.762 106.67C113.127 102.49 105.428 95.9088 95.1508 100.91C89.434 103.68 85.9204 109.392 84.9604 117.418C84.9061 117.918 85.0508 118.42 85.3633 118.816C85.6758 119.211 86.131 119.467 86.6308 119.53H86.8564C87.3216 119.525 87.7693 119.352 88.1162 119.042C88.4632 118.732 88.6858 118.306 88.7428 117.845C89.2804 113.194 91.1428 107.069 96.8356 104.294C102.164 101.722 106.287 103.147 108.96 105.038Z" fill="white" stroke="#263238" stroke-width="1.1326" stroke-linecap="round" stroke-linejoin="round"/>
<path d="M155.261 192.744H87.8213V195.466H155.261V192.744Z" fill="white" stroke="#263238" stroke-width="1.1326" stroke-linecap="round" stroke-linejoin="round"/>
<path d="M174.274 192.744H106.834V195.466H174.274V192.744Z" fill="white" stroke="#263238" stroke-width="1.1326" stroke-linecap="round" stroke-linejoin="round"/>
<path d="M66.7205 188.352H76.6757C77.7744 188.352 78.828 188.788 79.6048 189.565C80.3817 190.342 80.8181 191.396 80.8181 192.494V197.472H62.5781V192.48C62.5819 191.384 63.02 190.334 63.7965 189.56C64.5729 188.786 65.6244 188.352 66.7205 188.352Z" fill="#CD92E3" stroke="#263238" stroke-width="1.1326" stroke-linecap="round" stroke-linejoin="round"/>
<path d="M67.2004 190.44H71.4244C72.5231 190.44 73.5767 190.876 74.3535 191.653C75.1304 192.43 75.5668 193.484 75.5668 194.582V199.56H63.082V194.578C63.0833 193.484 63.517 192.435 64.2885 191.66C65.06 190.885 66.1068 190.446 67.2004 190.44Z" fill="#263238" stroke="#263238" stroke-width="1.1326" stroke-linecap="round" stroke-linejoin="round"/>
<path d="M67.2001 191.741H69.8641C70.9627 191.741 72.0164 192.177 72.7932 192.954C73.5701 193.731 74.0065 194.785 74.0065 195.883V197.736H63.0625V195.883C63.0625 194.785 63.4983 193.732 64.2741 192.956C65.0499 192.179 66.1023 191.742 67.2001 191.741Z" fill="#CD92E3" stroke="#263238" stroke-width="1.1326" stroke-linecap="round" stroke-linejoin="round"/>
<path d="M190.527 137.203H128.242V184.752H190.527V137.203Z" fill="white" stroke="#263238" stroke-width="1.1326" stroke-linecap="round" stroke-linejoin="round"/>
<path d="M193.099 137.203H130.814V184.752H193.099V137.203Z" fill="#263238" stroke="#263238" stroke-width="1.1326" stroke-linecap="round" stroke-linejoin="round"/>
<path d="M170.276 167.947H155.761V195.461H170.276V167.947Z" fill="white" stroke="#263238" stroke-width="1.1326" stroke-linecap="round" stroke-linejoin="round"/>
<path d="M220.781 194.558H27.7637V199.642H220.781V194.558Z" fill="white" stroke="#263238" stroke-width="1.1326" stroke-linecap="round" stroke-linejoin="round"/>
<path d="M220.781 194.558H94.6416V199.642H220.781V194.558Z" fill="#263238" stroke="#263238" stroke-width="1.1326" stroke-linecap="round" stroke-linejoin="round"/>
</g>
<defs>
<clipPath id="clip0_261_13546">
<rect width="240" height="240" fill="white"/>
</clipPath>
</defs>
</svg>
