<svg width="418" height="350" viewBox="0 0 418 350" fill="none" xmlns="http://www.w3.org/2000/svg">
<path d="M257.566 44.7284L263.44 112.717L275.357 70.6533L373.394 61.4185L257.566 44.7284Z" fill="#002C44"/>
<path d="M235.216 23.4509C235.216 23.4509 263.379 44.3231 263.359 52.1611L378.635 67.6254C378.607 67.6018 310.839 25.6528 235.216 23.4509Z" fill="#F4D158"/>
<path d="M257.231 113.88C257.177 115.89 292.135 103.887 292.135 103.887L267.533 73.5927C267.533 73.5927 257.749 96.2762 257.231 113.88Z" fill="#01B8C1"/>
<path d="M271.87 64.3123C271.87 64.3123 305.28 102.758 303.592 127.882L369.537 55.724C369.537 55.724 280.349 60.6626 271.87 64.3123Z" fill="#FDB03F"/>
<path d="M32.7178 291.673C40.0478 320.818 71.2616 342.001 101.022 337.553C130.782 333.105 154.56 303.233 151.669 273.315C150.946 265.878 148.593 258.248 143.233 253.034C137.873 247.82 128.993 245.765 122.68 249.798C115.564 254.333 114.362 265.063 118.67 272.308C122.989 279.552 131.363 283.563 139.704 284.858C157.378 287.602 176.309 278.995 185.84 263.869C196.564 246.837 195.052 225.247 196.103 205.165C198.392 161.088 203.525 92.4722 267.69 84.3556" stroke="#01B8C1" stroke-width="3" stroke-miterlimit="10" stroke-linecap="round" stroke-linejoin="round" stroke-dasharray="8 8"/>
</svg>
