<svg width="100" height="69" viewBox="0 0 100 69" fill="none" xmlns="http://www.w3.org/2000/svg">
<g id="Frame" clip-path="url(#clip0_289_4975)">
<g id="Group">
<path id="Vector" d="M8.4065 54.4965C7.98447 54.4965 7.55153 54.462 7.10765 54.393C6.66378 54.3251 6.24864 54.2366 5.86227 54.1273C5.47474 54.0181 5.16024 53.9042 4.91875 53.7858L5.08951 51.728C5.41725 51.9131 5.75993 52.0707 6.11756 52.2006C6.47634 52.3317 6.83512 52.4329 7.1939 52.5042C7.55153 52.5755 7.8942 52.6111 8.22193 52.6111C8.54966 52.6111 8.83427 52.5703 9.07576 52.4887C9.3184 52.4082 9.50584 52.2863 9.63808 52.123C9.77147 51.9586 9.83817 51.7458 9.83817 51.4848C9.83817 51.2191 9.75135 51.0001 9.57771 50.8276C9.40522 50.6539 9.15741 50.5016 8.83428 50.3705C8.51115 50.2405 8.12649 50.1118 7.68032 49.9841C7.06396 49.8036 6.53728 49.5931 6.1003 49.3528C5.66333 49.1136 5.32985 48.8054 5.09986 48.4283C4.86988 48.0511 4.75488 47.5658 4.75488 46.9724C4.75488 46.3791 4.8854 45.8558 5.14644 45.4028C5.40747 44.9485 5.80132 44.5938 6.32799 44.3385C6.85466 44.0821 7.52163 43.9539 8.32888 43.9539C8.64627 43.9539 8.96422 43.974 9.28275 44.0142C9.60128 44.0545 9.91119 44.1079 10.2125 44.1746C10.5138 44.2402 10.7926 44.3161 11.049 44.4023C11.3043 44.4874 11.5274 44.5777 11.7183 44.6731L11.5389 46.7361C11.2353 46.5464 10.9197 46.3877 10.592 46.26C10.2654 46.1324 9.94512 46.0352 9.63118 45.9685C9.3184 45.9018 9.03379 45.8685 8.77735 45.8685C8.48757 45.8685 8.22539 45.9064 7.9908 45.9823C7.75621 46.0582 7.56993 46.1744 7.43193 46.3308C7.29394 46.4872 7.22494 46.6844 7.22494 46.9224C7.22494 47.1547 7.29049 47.3502 7.42158 47.5089C7.55153 47.6687 7.75334 47.809 8.02703 47.9298C8.29956 48.0505 8.65144 48.1747 9.08267 48.3023C9.89452 48.545 10.5356 48.798 11.0059 49.0613C11.4751 49.3246 11.8086 49.6414 12.0064 50.0117C12.203 50.382 12.3013 50.8471 12.3013 51.4072C12.3013 52.0293 12.1662 52.5715 11.896 53.0337C11.6246 53.496 11.202 53.8554 10.6282 54.1118C10.0544 54.3682 9.3138 54.4965 8.4065 54.4965ZM18.4954 54.3119H16.1599V44.53L17.0431 46.2031H13.0913V44.1591H21.5554V46.2031H17.6054L18.4954 44.53V52.725V54.3119ZM27.1251 54.5051C26.0902 54.5051 25.2582 54.3389 24.6292 54.0066C24.0002 53.6754 23.5437 53.2022 23.2596 52.587C22.9744 51.9729 22.8319 51.2479 22.8319 50.4119V44.1608H25.1674V50.2842C25.1674 50.7684 25.2341 51.1812 25.3675 51.5227C25.4997 51.8643 25.7096 52.1253 25.9971 52.3058C26.2845 52.4864 26.6583 52.5766 27.1182 52.5766C27.5828 52.5766 27.9565 52.4864 28.2394 52.3058C28.5212 52.1253 28.7253 51.8643 28.8518 51.5227C28.9771 51.1812 29.0398 50.7661 29.0398 50.2773V44.1608H31.3753V50.4188C31.3753 51.2548 31.2258 51.9787 30.9268 52.5904C30.6278 53.2034 30.165 53.6754 29.5383 54.0066C28.9116 54.3389 28.1072 54.5051 27.1251 54.5051ZM33.2968 54.3119V44.1591H37.3331C38.107 44.1591 38.7952 44.2707 39.3978 44.4937C40.0015 44.7168 40.5109 45.0446 40.9261 45.4769C41.3412 45.9093 41.658 46.4371 41.8765 47.0604C42.095 47.6848 42.2042 48.3984 42.2042 49.201C42.2042 49.9174 42.1076 50.585 41.9144 51.2036C41.7224 51.8234 41.4165 52.3656 40.9968 52.8302C40.5771 53.2959 40.0228 53.6593 39.334 53.9203C38.6463 54.1814 37.8063 54.3119 36.8139 54.3119H34.387H33.2968ZM35.6392 52.4386H36.807C37.5384 52.4386 38.1185 52.2966 38.5474 52.0126C38.9775 51.7274 39.2874 51.3382 39.4771 50.8448C39.6669 50.3515 39.7618 49.7938 39.7618 49.1717C39.7618 48.7014 39.706 48.2742 39.5944 47.8901C39.4829 47.506 39.3121 47.1748 39.0822 46.8965C38.8522 46.6194 38.5589 46.4061 38.2024 46.2566C37.846 46.1071 37.4211 46.0324 36.9278 46.0324H35.6392V51.5072V52.4386ZM48.7226 50.731H46.4872L44.3948 46.7516L43.7428 45.5132C43.537 45.1187 43.2984 44.6674 43.027 44.1591H45.6903C45.8662 44.5535 46.0157 44.8922 46.1387 45.1751C46.2618 45.4568 46.3791 45.7236 46.4906 45.9754C46.6021 46.2273 46.7246 46.505 46.858 46.8086L47.5135 48.2885H47.7049L48.3535 46.8517C48.4995 46.5332 48.6312 46.2434 48.7485 45.9823C48.8646 45.7213 48.9865 45.4482 49.1142 45.163L49.5696 44.1591H52.1535C51.9258 44.5961 51.6981 45.0319 51.4704 45.4666C51.2427 45.9001 51.0219 46.3262 50.808 46.7447L48.7226 50.731ZM48.7864 54.3119H46.4371V48.7594H48.7864V52.725V54.3119ZM55.0823 54.3119H52.733C52.9136 53.7657 53.1021 53.1913 53.2988 52.5887C53.4954 51.9861 53.6817 51.4141 53.8577 50.8724L55.003 47.3916C55.2077 46.7603 55.3928 46.1922 55.5584 45.6874C55.7251 45.1814 55.8913 44.672 56.0569 44.1591H59.0755C59.2468 44.6915 59.4141 45.209 59.5774 45.7115C59.7419 46.2152 59.9259 46.7752 60.1294 47.3916L61.2609 50.8811C61.4461 51.4411 61.6347 52.0178 61.8267 52.6111C62.0199 53.2034 62.2039 53.7703 62.3787 54.3119H59.9586C59.8068 53.7703 59.6505 53.216 59.4895 52.6491C59.3273 52.0822 59.1726 51.5446 59.0255 51.0363L57.63 46.1462H57.4593L56.05 50.9863C55.8982 51.5141 55.7384 52.0661 55.5705 52.6422C55.4015 53.2195 55.2387 53.776 55.0823 54.3119ZM60.1656 52.1903H55.1824L55.4308 50.4395H59.9655L60.1656 52.1903ZM71.8553 54.3119H63.2256V53.0803C63.4636 52.7721 63.731 52.4266 64.0277 52.0436C64.3244 51.6619 64.6233 51.2755 64.9246 50.8845C65.2259 50.4924 65.5048 50.1325 65.7612 49.8047L69.1782 45.3907L69.449 46.1031H63.3757V44.1591H71.7759V45.7409C71.3919 46.2296 71.0135 46.7114 70.641 47.1863C70.2684 47.6601 69.8969 48.1321 69.5267 48.6025L65.982 53.1234L65.7957 52.3679H71.8553V54.3119ZM80.2486 54.3119H73.4422V44.1591H80.1848V46.0755H74.6168L75.7346 44.53V53.941L74.7669 52.3973H80.2486V54.3119ZM77.0593 50.0824H75.2016V48.3023H79.9572V50.0824H78.6324H77.0593ZM86.3065 54.3119H83.9572C84.1377 53.7657 84.3263 53.1913 84.523 52.5887C84.7196 51.9861 84.9059 51.4141 85.0818 50.8724L86.2289 47.3916C86.4324 46.7603 86.6176 46.1922 86.7843 45.6874C86.9499 45.1814 87.1155 44.672 87.2811 44.1591H90.2997C90.471 44.6915 90.6383 45.209 90.8016 45.7115C90.966 46.2152 91.15 46.7752 91.3536 47.3916L92.4868 50.8811C92.672 51.4411 92.8605 52.0178 93.0526 52.6111C93.2446 53.2034 93.4286 53.7703 93.6046 54.3119H91.1828C91.031 53.7703 90.8746 53.216 90.7136 52.6491C90.5526 52.0822 90.3985 51.5446 90.2514 51.0363L88.8559 46.1462H88.6852L87.2742 50.9863C87.1224 51.5141 86.9626 52.0661 86.7947 52.6422C86.6256 53.2195 86.4629 53.776 86.3065 54.3119ZM91.3898 52.1903H86.4066L86.6549 50.4395H91.1897L91.3898 52.1903ZM97.3269 54.3119H94.9345V44.1591H97.3269V52.725V54.3119Z" fill="white"/>
<path id="Vector_2" d="M13.6124 65.6669H12.9449C12.8851 65.4565 12.8207 65.2311 12.7517 64.9907L12.5568 64.3232L12.1756 62.9933C12.1089 62.7564 12.0347 62.4965 11.953 62.2137C11.8714 61.9308 11.7949 61.6651 11.7236 61.4168H12.3187C12.4027 61.7203 12.4889 62.04 12.5775 62.3758C12.6671 62.7116 12.7528 63.0318 12.8345 63.3366L13.2898 65.0287H13.3416L13.7849 63.3159C13.8366 63.1192 13.8907 62.9117 13.947 62.6932C14.0045 62.4758 14.0615 62.2585 14.1178 62.0412L14.2799 61.4168H14.9061C14.9854 61.7203 15.0688 62.0366 15.1562 62.3654C15.2436 62.6943 15.3281 63.0129 15.4097 63.321L15.8617 65.0287H15.9134L16.3757 63.3124C16.455 63.0157 16.539 62.6995 16.6275 62.3637C16.7172 62.0279 16.8017 61.7123 16.8811 61.4168H17.4814C17.4078 61.6686 17.3307 61.9336 17.2502 62.2119C17.1697 62.4902 17.0944 62.7466 17.0243 62.9812L16.6379 64.3232C16.5758 64.5348 16.5102 64.7608 16.4412 65.0011C16.3734 65.2403 16.3084 65.4622 16.2463 65.6669H15.5546C15.4753 65.3748 15.3913 65.0666 15.3028 64.7424C15.2154 64.4192 15.1326 64.1151 15.0544 63.8299L14.6025 62.174H14.5473L14.104 63.8299C14.0281 64.1162 13.9465 64.4227 13.8591 64.7493L13.6124 65.6669ZM21.5538 65.6669H21.0157V61.4168H21.5538V64.9838V65.6669ZM18.7285 65.6669H18.1903V61.4168H18.7285V64.9838V65.6669ZM21.2209 63.7471H18.5422V63.2831H21.2209V63.7471ZM25.3038 65.6669H22.6578V61.4168H25.2969V61.879H22.8872L23.1839 61.4944V65.5858L22.9165 65.2046H25.3038V65.6669ZM23.8911 63.7385H23.0683V63.2883H25.1779V63.7385H24.5897H23.8911ZM26.7216 65.6669H26.1938V61.4168H27.6307C27.955 61.4168 28.2246 61.4553 28.4397 61.5323C28.6558 61.6082 28.818 61.7307 28.9261 61.8997C29.0342 62.0688 29.0882 62.2913 29.0882 62.5673C29.0882 62.7995 29.0428 63.0123 28.952 63.2055C28.8623 63.3975 28.7122 63.5516 28.5017 63.6677C28.2902 63.7839 28.005 63.8431 27.6462 63.8454L27.8152 63.6108L28.4862 64.4474C28.592 64.5762 28.703 64.7142 28.8191 64.8614L29.1624 65.2926C29.2739 65.4329 29.3734 65.5577 29.4608 65.6669H28.8295C28.688 65.4875 28.5523 65.3145 28.4224 65.1477C28.2925 64.981 28.1637 64.8183 28.036 64.6596L27.2736 63.6764L27.6048 63.9403H26.6302V63.497H27.4375C27.6859 63.497 27.8906 63.4682 28.0515 63.4107C28.2125 63.3532 28.3327 63.2601 28.4121 63.1313C28.4914 63.0037 28.5311 62.8335 28.5311 62.6207C28.5311 62.4436 28.5029 62.3039 28.4465 62.2016C28.3891 62.0992 28.3143 62.0245 28.2223 61.9773C28.1303 61.929 28.0303 61.898 27.9222 61.8842C27.8152 61.8704 27.7123 61.8635 27.6134 61.8635H26.3611L26.7216 61.4944V64.9838V65.6669ZM32.8364 65.6669H30.1887V61.4168H32.8295V61.879H30.4181L30.7165 61.4944V65.5858L30.4492 65.2046H32.8364V65.6669ZM31.4237 63.7385H30.601V63.2883H32.7105V63.7385H32.1223H31.4237ZM36.0999 65.7307C35.9229 65.7307 35.7446 65.7141 35.5652 65.6807C35.3858 65.6485 35.2202 65.6077 35.0684 65.5582C34.9155 65.5099 34.7925 65.4611 34.6993 65.4116L34.7511 64.901C34.8833 64.9746 35.0219 65.039 35.1668 65.0942C35.3105 65.1483 35.4571 65.1903 35.6066 65.2202C35.7573 65.2501 35.9108 65.265 36.0672 65.265C36.2443 65.265 36.4041 65.2409 36.5467 65.1926C36.6881 65.1443 36.8003 65.0666 36.883 64.9597C36.9647 64.8539 37.0055 64.7142 37.0055 64.5405C37.0055 64.3899 36.963 64.2657 36.8779 64.168C36.7928 64.0691 36.6692 63.984 36.507 63.9127C36.3449 63.8414 36.1488 63.7695 35.9188 63.6971C35.6486 63.612 35.418 63.52 35.2271 63.4211C35.0362 63.321 34.8908 63.198 34.7907 63.052C34.6907 62.9059 34.6407 62.7196 34.6407 62.4931C34.6407 62.2735 34.6924 62.0762 34.7959 61.9014C34.9006 61.7267 35.0564 61.5887 35.2634 61.4875C35.4692 61.3874 35.7251 61.3374 36.0309 61.3374C36.1586 61.3374 36.2845 61.3466 36.4087 61.365C36.5329 61.3823 36.6513 61.4064 36.764 61.4374C36.8779 61.4685 36.9814 61.503 37.0745 61.5409C37.1677 61.5777 37.247 61.6163 37.3125 61.6565L37.2591 62.1688C37.1383 62.0872 37.0101 62.0193 36.8744 61.9653C36.7399 61.9101 36.6059 61.8693 36.4725 61.8428C36.3391 61.8164 36.2161 61.8031 36.1034 61.8031C35.9424 61.8031 35.7946 61.8267 35.6601 61.8738C35.5244 61.9221 35.4152 61.9952 35.3324 62.0929C35.2507 62.1918 35.2099 62.3183 35.2099 62.4724C35.2099 62.6081 35.2444 62.7208 35.3134 62.8105C35.3835 62.899 35.4934 62.9789 35.6428 63.0502C35.7923 63.1204 35.9855 63.1934 36.2224 63.2693C36.5639 63.3762 36.8324 63.4849 37.0279 63.5953C37.2246 63.7057 37.3637 63.8333 37.4454 63.9782C37.5282 64.1231 37.5696 64.3008 37.5696 64.5112C37.5696 64.7435 37.5184 64.9511 37.416 65.1339C37.3137 65.3168 37.1544 65.4616 36.9382 65.5686C36.7209 65.6767 36.4415 65.7307 36.0999 65.7307ZM39.9948 65.6669H39.4549V61.4944L39.6688 61.8963H37.9973V61.4168H41.4489V61.8963H39.7757L39.9948 61.4944V64.9838V65.6669ZM43.8102 65.7325C43.4147 65.7325 43.0933 65.664 42.846 65.5272C42.5988 65.3915 42.4171 65.2 42.301 64.9528C42.1848 64.7056 42.1267 64.4169 42.1267 64.0869V61.4168H42.6632V64.0334C42.6632 64.2899 42.7006 64.5106 42.7753 64.6958C42.8512 64.8798 42.9731 65.0212 43.141 65.1201C43.3089 65.2179 43.532 65.2667 43.8102 65.2667C44.0897 65.2667 44.3128 65.2179 44.4795 65.1201C44.6451 65.0212 44.7647 64.8798 44.8383 64.6958C44.9119 64.5106 44.9487 64.2881 44.9487 64.0282V61.4168H45.4851V64.0869C45.4851 64.4169 45.4265 64.7056 45.3092 64.9528C45.1919 65.2 45.0102 65.3915 44.7641 65.5272C44.5169 65.664 44.1989 65.7325 43.8102 65.7325ZM46.5373 65.6669V61.4168H48.0294C48.3571 61.4168 48.648 61.4639 48.9022 61.5582C49.1574 61.6525 49.3719 61.7905 49.5455 61.9722C49.7192 62.1539 49.8514 62.3752 49.9423 62.6363C50.032 62.8961 50.0768 63.1923 50.0768 63.5246C50.0768 63.8236 50.0371 64.103 49.9578 64.3629C49.8785 64.6216 49.752 64.8493 49.5783 65.0459C49.4047 65.2414 49.177 65.3938 48.8953 65.503C48.6147 65.6123 48.2726 65.6669 47.8689 65.6669H46.9703H46.5373ZM47.0755 65.2167H47.8724C48.2772 65.2167 48.5997 65.1425 48.8401 64.9942C49.0804 64.8459 49.2535 64.6435 49.3593 64.387C49.4639 64.1294 49.5162 63.8385 49.5162 63.5142C49.5162 63.2658 49.4852 63.0405 49.4231 62.8381C49.3598 62.6357 49.2644 62.462 49.1367 62.3172C49.0091 62.1723 48.8452 62.0607 48.6452 61.9825C48.4451 61.9055 48.2093 61.8669 47.9379 61.8669H47.0755V64.7096V65.2167ZM52.5796 64.0058H52.0674L51.1411 62.4362C51.0422 62.2694 50.9467 62.1079 50.8547 61.9515C50.7639 61.7962 50.6587 61.618 50.5391 61.4168H51.1566C51.2658 61.6076 51.359 61.7715 51.436 61.9083C51.5131 62.0452 51.5867 62.1751 51.6568 62.2982C51.7258 62.4201 51.8023 62.5546 51.8862 62.7018L52.2968 63.4263H52.3502L52.7504 62.7277C52.8401 62.5713 52.9212 62.4293 52.9936 62.3016C53.0661 62.1751 53.142 62.0429 53.2213 61.9049C53.3007 61.7658 53.3938 61.603 53.5008 61.4168H54.1062L53.8043 61.9308C53.7031 62.101 53.6042 62.2683 53.5076 62.4327L52.5796 64.0058ZM52.5952 65.6669H52.0553V63.5574H52.5952V64.9838V65.6669ZM56.3175 65.6669H55.8018C55.8294 65.4358 55.8575 65.2081 55.8863 64.9838C55.915 64.7596 55.9455 64.5152 55.9777 64.2508L56.1537 62.8501L56.2434 62.124C56.271 61.8986 56.3008 61.6628 56.333 61.4168H56.8747C56.9977 61.7192 57.1167 62.0107 57.2317 62.2913C57.3479 62.573 57.4623 62.8524 57.575 63.1296L58.2477 64.782H58.2908L58.9583 63.133C59.071 62.8513 59.1843 62.5713 59.2981 62.293C59.4108 62.0147 59.5276 61.7226 59.6483 61.4168H60.1916C60.2215 61.6594 60.2497 61.8928 60.2762 62.1171C60.3026 62.3413 60.3331 62.5845 60.3676 62.8467L60.5401 64.2628L60.6298 64.9821C60.6574 65.2041 60.685 65.4323 60.7126 65.6669H60.1968C60.152 65.2886 60.1083 64.9298 60.0657 64.5906C60.0243 64.2513 59.9858 63.9345 59.9502 63.6401L59.7949 62.3706H59.757L59.2171 63.7385C59.086 64.0696 58.9549 64.402 58.8238 64.7355L58.4564 65.6669H58.0907C58.0194 65.4864 57.9401 65.2874 57.8527 65.0701C57.7653 64.8539 57.675 64.6325 57.5819 64.406C57.4899 64.1795 57.4002 63.9598 57.3128 63.7471L56.7556 62.3706H56.716L56.5625 63.6367C56.5257 63.9334 56.4871 64.2513 56.4469 64.5906C56.4066 64.9298 56.3635 65.2886 56.3175 65.6669ZM64.3073 65.6669H61.6613V61.4168H64.3004V61.879H61.8907L62.1874 61.4944V65.5858L61.92 65.2046H64.3073V65.6669ZM62.8946 63.7385H62.0718V63.2883H64.1813V63.7385H63.5932H62.8946ZM67.8468 65.6669H65.199V61.4168H67.8399V61.879H65.4285L65.7269 61.4944V65.5858L65.4595 65.2046H67.8468V65.6669ZM66.4341 63.7385H65.6113V63.2883H67.7208V63.7385H67.1326H66.4341ZM70.3651 65.6669H69.827V61.4944L70.0408 61.8963H68.3694V61.4168H71.8192V61.8963H70.1478L70.3651 61.4944V64.9838V65.6669ZM73.7891 65.7307C73.6131 65.7307 73.4349 65.7141 73.2543 65.6807C73.0749 65.6485 72.9094 65.6077 72.7576 65.5582C72.6058 65.5099 72.4827 65.4611 72.3884 65.4116L72.4402 64.901C72.5736 64.9746 72.7121 65.039 72.8559 65.0942C72.9996 65.1483 73.1462 65.1903 73.2957 65.2202C73.4464 65.2501 73.5999 65.265 73.7563 65.265C73.9334 65.265 74.0932 65.2409 74.2358 65.1926C74.3772 65.1443 74.4893 65.0666 74.5721 64.9597C74.6549 64.8539 74.6964 64.7142 74.6964 64.5405C74.6964 64.3899 74.6532 64.2657 74.567 64.168C74.4819 64.0691 74.3583 63.984 74.1961 63.9127C74.034 63.8414 73.8379 63.7695 73.6079 63.6971C73.3377 63.612 73.1071 63.52 72.9162 63.4211C72.7253 63.321 72.5799 63.198 72.4798 63.052C72.3798 62.9059 72.3298 62.7196 72.3298 62.4931C72.3298 62.2735 72.3821 62.0762 72.4867 61.9014C72.5902 61.7267 72.7455 61.5887 72.9525 61.4875C73.1595 61.3874 73.4159 61.3374 73.7218 61.3374C73.8483 61.3374 73.9736 61.3466 74.0978 61.365C74.222 61.3823 74.341 61.4064 74.4549 61.4374C74.5676 61.4685 74.6705 61.503 74.7636 61.5409C74.8579 61.5777 74.9378 61.6163 75.0034 61.6565L74.9482 62.1688C74.8274 62.0872 74.6998 62.0193 74.5653 61.9653C74.4296 61.9101 74.295 61.8693 74.1616 61.8428C74.0294 61.8164 73.9063 61.8031 73.7925 61.8031C73.6315 61.8031 73.4837 61.8267 73.3492 61.8738C73.2135 61.9221 73.1048 61.9952 73.0232 62.0929C72.9404 62.1918 72.899 62.3183 72.899 62.4724C72.899 62.6081 72.9335 62.7208 73.0025 62.8105C73.0726 62.899 73.1825 62.9789 73.3319 63.0502C73.4826 63.1204 73.6758 63.1934 73.9115 63.2693C74.253 63.3762 74.5221 63.4849 74.7188 63.5953C74.9143 63.7057 75.0528 63.8333 75.1345 63.9782C75.2173 64.1231 75.2587 64.3008 75.2587 64.5112C75.2587 64.7435 75.2075 64.9511 75.1052 65.1339C75.0028 65.3168 74.8435 65.4616 74.6273 65.5686C74.4112 65.6767 74.1317 65.7307 73.7891 65.7307ZM77.7235 65.6669H77.1923V61.4168H79.7831V61.8825H77.4941L77.7235 61.4944V64.9838V65.6669ZM78.3738 63.7643H77.5959V63.3159H79.6641V63.7643H79.0724H78.3738ZM82.2376 65.7325C81.8432 65.7325 81.5224 65.664 81.2751 65.5272C81.0267 65.3915 80.8445 65.2 80.7283 64.9528C80.6122 64.7056 80.5541 64.4169 80.5541 64.0869V61.4168H81.0906V64.0334C81.0906 64.2899 81.1285 64.5106 81.2044 64.6958C81.2803 64.8798 81.4022 65.0212 81.5701 65.1201C81.738 65.2179 81.9605 65.2667 82.2376 65.2667C82.5182 65.2667 82.7413 65.2179 82.9069 65.1201C83.0736 65.0212 83.1938 64.8798 83.2674 64.6958C83.3398 64.5106 83.376 64.2881 83.376 64.0282V61.4168H83.9125V64.0869C83.9125 64.4169 83.8538 64.7056 83.7365 64.9528C83.6204 65.2 83.4387 65.3915 83.1915 65.5272C82.9454 65.664 82.6274 65.7325 82.2376 65.7325ZM85.477 65.6669H84.9647V61.4168H85.4511C85.7052 61.7744 85.9496 62.1194 86.1842 62.4517C86.4188 62.7829 86.6499 63.1095 86.8776 63.4314L87.7987 64.7303H87.8435V61.4168H88.3558V65.6669H87.8763L87.2122 64.7268C86.9799 64.398 86.7247 64.0369 86.4464 63.6436L85.5201 62.3344H85.477V64.9838V65.6669Z" fill="white"/>
<path id="Vector_3" d="M49.9218 35.2441C46.9488 35.2441 43.9757 35.2355 41.0027 35.2528C40.5749 35.2548 40.3334 35.1199 40.1196 34.7415C37.1575 29.4896 34.1837 24.2444 31.1984 19.0057C30.9927 18.6442 31.0121 18.3768 31.2109 18.0303C34.214 12.7814 37.2084 7.52633 40.1899 2.26469C40.3952 1.90316 40.6305 1.78345 41.0369 1.78345C47.0001 1.79414 52.9633 1.79414 58.9265 1.78345C59.3267 1.78345 59.5595 1.8947 59.767 2.26262C62.7054 7.46669 65.6592 12.662 68.6284 17.8485C68.9107 18.3404 68.9087 18.7106 68.6284 19.2025C65.6898 24.3251 62.7673 29.457 59.8612 34.5982C59.5895 35.0794 59.2903 35.2612 58.7318 35.2548C55.7951 35.2269 52.8585 35.2419 49.9196 35.2419L49.9218 35.2441ZM43.7682 8.77965V29.6209C49.676 26.2672 55.4914 22.9645 61.4054 19.6067C55.526 15.9981 49.647 12.3892 43.7682 8.77965ZM44.3823 8.04173C50.1678 11.5923 55.8379 15.0724 61.6365 18.6314C61.5744 18.1629 61.5468 17.8507 61.4909 17.5447C60.6781 13.0105 59.8612 8.47814 59.0505 3.94371C58.9372 3.30843 58.9329 3.29343 58.2976 3.50093C54.6427 4.68777 50.9881 5.87559 47.3338 7.06441C46.3927 7.37023 45.4559 7.68468 44.3799 8.03967L44.3823 8.04173ZM42.7009 29.2166V9.03631C39.2873 12.3174 35.97 15.5064 32.6012 18.7448C35.9549 22.2225 39.2702 25.662 42.7009 29.2189V29.2166ZM44.5767 30.2774C44.7799 30.3545 44.8741 30.4016 44.9703 30.4251C49.2672 31.4945 53.5664 32.5662 57.8657 33.6313C58.5586 33.8025 58.5565 33.7897 58.7169 33.1052C59.6366 29.1569 60.5605 25.2085 61.4781 21.26C61.5189 21.0848 61.5316 20.9029 61.5765 20.5928C55.8636 23.846 50.2768 27.0308 44.5746 30.2776L44.5767 30.2774ZM41.3986 2.7675C41.4926 3.0114 41.5483 3.17803 41.6211 3.33431C42.1599 4.49568 42.7267 5.64429 43.2294 6.82068C43.4198 7.2657 43.6382 7.28692 44.0421 7.15427C48.0291 5.84749 52.0224 4.55554 56.0112 3.25738C56.4114 3.1268 56.8069 2.97932 57.2026 2.84029C57.194 2.81666 57.1837 2.79096 57.175 2.7675H41.3986ZM60.4153 5.34054C60.3747 5.35779 60.332 5.37487 60.2912 5.39401C60.3875 5.93304 60.4858 6.47414 60.58 7.01318C61.2665 10.8804 61.9575 14.7452 62.6333 18.6145C62.6975 18.9845 62.8151 19.0871 63.1939 18.993C64.0557 18.7813 64.9326 18.6209 65.7988 18.4284C66.3657 18.3021 66.9281 18.1567 67.5784 18.0006C65.1909 13.7801 62.8025 9.56006 60.4132 5.34054H60.4153ZM32.9457 16.8991L33.0226 16.9697C33.0783 16.9334 33.1425 16.9034 33.1917 16.8563C36.2546 13.9281 39.3133 10.9979 42.3802 8.07623C42.6262 7.84303 42.607 7.65053 42.4785 7.37679C41.931 6.21972 41.4029 5.05162 40.8616 3.89041C40.8018 3.76001 40.7077 3.64651 40.5815 3.44987C38.0021 7.99499 35.474 12.4461 32.9457 16.8991ZM67.6554 18.9374C65.9914 19.2924 64.4962 19.6005 63.014 19.9491C62.8558 19.9853 62.6804 20.2508 62.6354 20.4389C61.7008 24.3614 60.7811 28.2907 59.8635 32.2178C59.8359 32.3375 59.8334 32.4638 59.8186 32.5878C59.8484 32.5942 59.8785 32.6028 59.9083 32.6092C62.4643 28.1003 65.0182 23.5938 67.6576 18.9374H67.6554ZM56.2508 34.2946L56.2638 34.2304C56.1546 34.1876 56.0499 34.1342 55.9365 34.1062C51.971 33.1075 48.0034 32.115 44.0399 31.1097C43.6444 31.0093 43.3727 31.0542 43.1675 31.4542C42.9236 31.9268 42.6155 32.3675 42.3417 32.8231C42.0637 33.2871 41.792 33.7555 41.4755 34.2925H56.251L56.2508 34.2946ZM40.6691 33.7642C41.2466 32.7974 41.7278 31.9289 42.2755 31.1056C42.5663 30.6671 42.5342 30.3997 42.1663 30.0211C39.4841 27.2747 36.8257 24.5049 34.1585 21.7457C34.0451 21.6281 33.9189 21.5232 33.7992 21.4142C33.7692 21.4399 33.7391 21.4634 33.7095 21.4891C36.0088 25.5422 38.3056 29.5954 40.6695 33.7662L40.6691 33.7642Z" fill="white"/>
</g>
</g>
<defs>
<clipPath id="clip0_289_4975">
<rect width="100" height="67.7996" fill="white" transform="translate(0 0.571045)"/>
</clipPath>
</defs>
</svg>
