<svg width="100" height="68" viewBox="0 0 100 68" fill="none" xmlns="http://www.w3.org/2000/svg">
<g clip-path="url(#clip0_267_48738)">
<path d="M8.4065 53.9254C7.98447 53.9254 7.55153 53.8909 7.10765 53.8219C6.66378 53.7541 6.24864 53.6655 5.86227 53.5563C5.47474 53.447 5.16024 53.3332 4.91875 53.2147L5.08951 51.1569C5.41725 51.3421 5.75993 51.4996 6.11756 51.6296C6.47634 51.7607 6.83512 51.8619 7.1939 51.9331C7.55153 52.0044 7.8942 52.0401 8.22193 52.0401C8.54966 52.0401 8.83427 51.9993 9.07576 51.9176C9.3184 51.8371 9.50584 51.7152 9.63808 51.5519C9.77147 51.3875 9.83817 51.1748 9.83817 50.9137C9.83817 50.6481 9.75135 50.429 9.57771 50.2565C9.40522 50.0829 9.15741 49.9305 8.83428 49.7994C8.51115 49.6695 8.12649 49.5407 7.68032 49.4131C7.06395 49.2325 6.53728 49.0221 6.1003 48.7818C5.66333 48.5426 5.32985 48.2344 5.09986 47.8572C4.86988 47.48 4.75488 46.9948 4.75488 46.4014C4.75488 45.808 4.8854 45.2848 5.14644 44.8317C5.40747 44.3775 5.80132 44.0228 6.32799 43.7675C6.85466 43.511 7.52163 43.3828 8.32888 43.3828C8.64627 43.3828 8.96422 43.4029 9.28275 43.4432C9.60128 43.4834 9.91119 43.5369 10.2125 43.6036C10.5138 43.6691 10.7926 43.745 11.049 43.8313C11.3043 43.9164 11.5274 44.0067 11.7183 44.1021L11.5389 46.1651C11.2353 45.9753 10.9197 45.8166 10.592 45.689C10.2654 45.5614 9.94512 45.4642 9.63118 45.3975C9.3184 45.3308 9.03379 45.2975 8.77735 45.2975C8.48757 45.2975 8.22539 45.3354 7.9908 45.4113C7.75621 45.4872 7.56993 45.6033 7.43193 45.7597C7.29394 45.9161 7.22494 46.1133 7.22494 46.3514C7.22494 46.5837 7.29049 46.7791 7.42158 46.9378C7.55153 47.0977 7.75334 47.238 8.02703 47.3587C8.29956 47.4795 8.65144 47.6036 9.08267 47.7313C9.89452 47.9739 10.5356 48.2269 11.0059 48.4902C11.4751 48.7536 11.8086 49.0704 12.0064 49.4407C12.203 49.8109 12.3013 50.2761 12.3013 50.8361C12.3013 51.4582 12.1662 52.0004 11.896 52.4627C11.6246 52.925 11.202 53.2843 10.6282 53.5408C10.0544 53.7972 9.31379 53.9254 8.4065 53.9254ZM18.4954 53.7408H16.1599V43.9589L17.0431 45.6321H13.0913V43.5881H21.5554V45.6321H17.6054L18.4954 43.9589V52.1539V53.7408ZM27.1251 53.934C26.0902 53.934 25.2582 53.7679 24.6292 53.4355C24.0002 53.1044 23.5437 52.6312 23.2596 52.0159C22.9744 51.4019 22.8318 50.6768 22.8318 49.8408V43.5898H25.1674V49.7132C25.1674 50.1973 25.2341 50.6101 25.3675 50.9517C25.4997 51.2932 25.7096 51.5542 25.9971 51.7348C26.2845 51.9153 26.6583 52.0056 27.1182 52.0056C27.5828 52.0056 27.9565 51.9153 28.2394 51.7348C28.5212 51.5542 28.7253 51.2932 28.8518 50.9517C28.9771 50.6101 29.0398 50.195 29.0398 49.7063V43.5898H31.3753V49.8477C31.3753 50.6837 31.2258 51.4076 30.9268 52.0194C30.6278 52.6323 30.165 53.1044 29.5383 53.4355C28.9116 53.7679 28.1072 53.934 27.1251 53.934ZM33.2968 53.7408V43.5881H37.3331C38.107 43.5881 38.7952 43.6996 39.3978 43.9227C40.0015 44.1458 40.5109 44.4735 40.9261 44.9059C41.3412 45.3383 41.658 45.8661 41.8765 46.4894C42.095 47.1138 42.2042 47.8273 42.2042 48.63C42.2042 49.3464 42.1076 50.0139 41.9144 50.6326C41.7224 51.2524 41.4165 51.7946 40.9968 52.2592C40.5771 52.7249 40.0228 53.0883 39.334 53.3493C38.6463 53.6103 37.8063 53.7408 36.8139 53.7408H34.387H33.2968ZM35.6392 51.8676H36.807C37.5384 51.8676 38.1185 51.7256 38.5474 51.4416C38.9775 51.1564 39.2874 50.7671 39.4772 50.2738C39.6669 49.7805 39.7618 49.2228 39.7618 48.6006C39.7618 48.1303 39.706 47.7031 39.5944 47.319C39.4829 46.935 39.3121 46.6038 39.0822 46.3255C38.8522 46.0484 38.5589 45.835 38.2024 45.6856C37.846 45.5361 37.4211 45.4613 36.9278 45.4613H35.6392V50.9362V51.8676ZM48.7226 50.1599H46.4872L44.3948 46.1806L43.7428 44.9421C43.537 44.5477 43.2984 44.0963 43.027 43.5881H45.6902C45.8662 43.9825 46.0157 44.3212 46.1387 44.604C46.2618 44.8858 46.3791 45.1526 46.4906 45.4044C46.6022 45.6562 46.7246 45.9339 46.858 46.2375L47.5135 47.7175H47.7049L48.3535 46.2806C48.4995 45.9621 48.6312 45.6723 48.7485 45.4113C48.8646 45.1503 48.9865 44.8772 49.1142 44.592L49.5696 43.5881H52.1535C51.9258 44.0251 51.6981 44.4609 51.4704 44.8955C51.2427 45.3291 51.0219 45.7551 50.808 46.1737L48.7226 50.1599ZM48.7865 53.7408H46.4371V48.1884H48.7865V52.1539V53.7408ZM55.0823 53.7408H52.733C52.9136 53.1946 53.1021 52.6202 53.2988 52.0177C53.4954 51.4151 53.6817 50.843 53.8577 50.3014L55.003 46.8205C55.2077 46.1892 55.3928 45.6212 55.5584 45.1163C55.7251 44.6104 55.8913 44.1009 56.0569 43.5881H59.0755C59.2468 44.1205 59.4141 44.638 59.5774 45.1405C59.7419 45.6442 59.9259 46.2042 60.1294 46.8205L61.2609 50.31C61.4461 50.87 61.6347 51.4467 61.8267 52.0401C62.0199 52.6323 62.2039 53.1992 62.3787 53.7408H59.9586C59.8068 53.1992 59.6505 52.645 59.4895 52.078C59.3273 51.5111 59.1726 50.9735 59.0255 50.4653L57.63 45.5752H57.4593L56.05 50.4152C55.8982 50.9431 55.7384 51.495 55.5705 52.0711C55.4015 52.6484 55.2387 53.205 55.0823 53.7408ZM60.1656 51.6192H55.1824L55.4308 49.8684H59.9655L60.1656 51.6192ZM71.8553 53.7408H63.2256V52.5093C63.4636 52.2011 63.731 51.8555 64.0277 51.4726C64.3244 51.0908 64.6233 50.7044 64.9246 50.3135C65.2259 49.9213 65.5048 49.5614 65.7612 49.2337L69.1782 44.8197L69.449 45.532H63.3757V43.5881H71.7759V45.1698C71.3919 45.6585 71.0135 46.1404 70.641 46.6153C70.2684 47.0891 69.8969 47.5611 69.5267 48.0314L65.982 52.5524L65.7957 51.7969H71.8553V53.7408ZM80.2487 53.7408H73.4422V43.5881H80.1848V45.5044H74.6168L75.7346 43.9589V53.37L74.7669 51.8262H80.2487V53.7408ZM77.0593 49.5114H75.2016V47.7313H79.9572V49.5114H78.6324H77.0593ZM86.3065 53.7408H83.9572C84.1377 53.1946 84.3263 52.6202 84.523 52.0177C84.7196 51.4151 84.9059 50.843 85.0818 50.3014L86.2289 46.8205C86.4324 46.1892 86.6176 45.6212 86.7843 45.1163C86.9499 44.6104 87.1155 44.1009 87.2811 43.5881H90.2997C90.471 44.1205 90.6383 44.638 90.8016 45.1405C90.966 45.6442 91.15 46.2042 91.3536 46.8205L92.4868 50.31C92.672 50.87 92.8606 51.4467 93.0526 52.0401C93.2446 52.6323 93.4286 53.1992 93.6046 53.7408H91.1828C91.031 53.1992 90.8746 52.645 90.7136 52.078C90.5526 51.5111 90.3985 50.9735 90.2514 50.4653L88.8559 45.5752H88.6852L87.2742 50.4152C87.1224 50.9431 86.9626 51.495 86.7947 52.0711C86.6256 52.6484 86.4629 53.205 86.3065 53.7408ZM91.3898 51.6192H86.4066L86.6549 49.8684H91.1897L91.3898 51.6192ZM97.3269 53.7408H94.9345V43.5881H97.3269V52.1539V53.7408Z" fill="url(#paint0_linear_267_48738)"/>
<path d="M13.6124 65.0959H12.9449C12.8851 64.8854 12.8207 64.66 12.7517 64.4197L12.5568 63.7522L12.1756 62.4223C12.1089 62.1854 12.0347 61.9255 11.953 61.6426C11.8714 61.3597 11.7949 61.0941 11.7236 60.8457H12.3187C12.4027 61.1493 12.4889 61.469 12.5775 61.8048C12.6671 62.1405 12.7528 62.4608 12.8345 62.7655L13.2898 64.4577H13.3416L13.7849 62.7448C13.8366 62.5482 13.8907 62.3406 13.947 62.1221C14.0045 61.9048 14.0615 61.6875 14.1178 61.4701L14.2799 60.8457H14.9061C14.9854 61.1493 15.0688 61.4655 15.1562 61.7944C15.2436 62.1233 15.3281 62.4418 15.4097 62.75L15.8617 64.4577H15.9134L16.3757 62.7414C16.455 62.4447 16.539 62.1285 16.6275 61.7927C16.7172 61.4569 16.8017 61.1412 16.8811 60.8457H17.4814C17.4078 61.0975 17.3307 61.3626 17.2502 61.6409C17.1697 61.9192 17.0944 62.1756 17.0243 62.4102L16.6379 63.7522C16.5758 63.9637 16.5102 64.1897 16.4412 64.4301C16.3734 64.6692 16.3084 64.8912 16.2463 65.0959H15.5546C15.4753 64.8038 15.3913 64.4956 15.3028 64.1713C15.2154 63.8482 15.1326 63.544 15.0544 63.2588L14.6025 61.6029H14.5473L14.104 63.2588C14.0281 63.5452 13.9465 63.8516 13.8591 64.1782L13.6124 65.0959ZM21.5538 65.0959H21.0157V60.8457H21.5538V64.4128V65.0959ZM18.7285 65.0959H18.1903V60.8457H18.7285V64.4128V65.0959ZM21.2209 63.176H18.5422V62.712H21.2209V63.176ZM25.3038 65.0959H22.6578V60.8457H25.2969V61.308H22.8872L23.1839 60.9233V65.0148L22.9165 64.6336H25.3038V65.0959ZM23.8911 63.1674H23.0683V62.7172H25.1779V63.1674H24.5897H23.8911ZM26.7216 65.0959H26.1938V60.8457H27.6307C27.955 60.8457 28.2246 60.8842 28.4397 60.9613C28.6558 61.0372 28.818 61.1596 28.9261 61.3287C29.0342 61.4977 29.0882 61.7202 29.0882 61.9962C29.0882 62.2285 29.0428 62.4412 28.952 62.6344C28.8623 62.8265 28.7122 62.9806 28.5017 63.0967C28.2902 63.2128 28.005 63.2721 27.6462 63.2744L27.8152 63.0398L28.4862 63.8764C28.592 64.0051 28.703 64.1431 28.8191 64.2903L29.1624 64.7216C29.2739 64.8619 29.3734 64.9866 29.4608 65.0959H28.8295C28.688 64.9165 28.5523 64.7434 28.4224 64.5767C28.2925 64.4099 28.1637 64.2472 28.036 64.0885L27.2736 63.1053L27.6048 63.3692H26.6302V62.9259H27.4375C27.6859 62.9259 27.8906 62.8972 28.0515 62.8397C28.2125 62.7822 28.3327 62.6891 28.4121 62.5603C28.4914 62.4326 28.5311 62.2624 28.5311 62.0497C28.5311 61.8726 28.5029 61.7329 28.4465 61.6305C28.3891 61.5282 28.3143 61.4534 28.2223 61.4063C28.1303 61.358 28.0303 61.327 27.9222 61.3132C27.8152 61.2994 27.7123 61.2925 27.6134 61.2925H26.3611L26.7216 60.9233V64.4128V65.0959ZM32.8364 65.0959H30.1887V60.8457H32.8295V61.308H30.4181L30.7165 60.9233V65.0148L30.4492 64.6336H32.8364V65.0959ZM31.4237 63.1674H30.601V62.7172H32.7105V63.1674H32.1223H31.4237ZM36.0999 65.1597C35.9229 65.1597 35.7446 65.143 35.5652 65.1097C35.3858 65.0775 35.2202 65.0366 35.0684 64.9872C34.9155 64.9389 34.7925 64.89 34.6993 64.8406L34.7511 64.33C34.8833 64.4036 35.0219 64.468 35.1668 64.5232C35.3105 64.5772 35.4571 64.6192 35.6066 64.6491C35.7573 64.679 35.9108 64.694 36.0672 64.694C36.2443 64.694 36.4041 64.6698 36.5467 64.6215C36.6881 64.5732 36.8003 64.4956 36.883 64.3887C36.9647 64.2829 37.0055 64.1431 37.0055 63.9695C37.0055 63.8189 36.963 63.6947 36.8779 63.5969C36.7928 63.498 36.6692 63.4129 36.507 63.3416C36.3449 63.2703 36.1488 63.1985 35.9188 63.126C35.6486 63.0409 35.418 62.9489 35.2271 62.85C35.0362 62.75 34.8908 62.627 34.7907 62.4809C34.6907 62.3349 34.6407 62.1486 34.6407 61.922C34.6407 61.7024 34.6924 61.5052 34.7959 61.3304C34.9006 61.1556 35.0564 61.0176 35.2634 60.9164C35.4692 60.8164 35.7251 60.7664 36.0309 60.7664C36.1586 60.7664 36.2845 60.7756 36.4087 60.794C36.5329 60.8112 36.6513 60.8354 36.764 60.8664C36.8779 60.8975 36.9814 60.932 37.0745 60.9699C37.1677 61.0067 37.247 61.0452 37.3125 61.0855L37.2591 61.5978C37.1383 61.5161 37.0101 61.4483 36.8744 61.3942C36.7399 61.339 36.6059 61.2982 36.4725 61.2718C36.3391 61.2453 36.2161 61.2321 36.1034 61.2321C35.9424 61.2321 35.7946 61.2557 35.6601 61.3028C35.5244 61.3511 35.4152 61.4241 35.3324 61.5219C35.2507 61.6208 35.2099 61.7473 35.2099 61.9013C35.2099 62.037 35.2444 62.1497 35.3134 62.2394C35.3835 62.328 35.4934 62.4079 35.6428 62.4792C35.7923 62.5493 35.9855 62.6224 36.2224 62.6982C36.5639 62.8052 36.8324 62.9139 37.0279 63.0243C37.2246 63.1346 37.3637 63.2623 37.4454 63.4072C37.5282 63.5521 37.5696 63.7297 37.5696 63.9402C37.5696 64.1725 37.5184 64.38 37.416 64.5629C37.3137 64.7457 37.1544 64.8906 36.9382 64.9975C36.7209 65.1056 36.4415 65.1597 36.0999 65.1597ZM39.9948 65.0959H39.4549V60.9233L39.6688 61.3252H37.9973V60.8457H41.4489V61.3252H39.7757L39.9948 60.9233V64.4128V65.0959ZM43.8102 65.1614C43.4147 65.1614 43.0933 65.093 42.846 64.9561C42.5988 64.8205 42.4171 64.629 42.301 64.3818C42.1848 64.1345 42.1267 63.8459 42.1267 63.5159V60.8457H42.6632V63.4624C42.6632 63.7188 42.7006 63.9396 42.7753 64.1247C42.8512 64.3087 42.9731 64.4502 43.141 64.5491C43.3089 64.6468 43.532 64.6957 43.8102 64.6957C44.0897 64.6957 44.3128 64.6468 44.4795 64.5491C44.6451 64.4502 44.7647 64.3087 44.8383 64.1247C44.9119 63.9396 44.9487 63.7171 44.9487 63.4572V60.8457H45.4851V63.5159C45.4851 63.8459 45.4265 64.1345 45.3092 64.3818C45.1919 64.629 45.0102 64.8205 44.7641 64.9561C44.5169 65.093 44.1989 65.1614 43.8102 65.1614ZM46.5373 65.0959V60.8457H48.0294C48.3571 60.8457 48.648 60.8928 48.9022 60.9871C49.1574 61.0814 49.3719 61.2194 49.5455 61.4011C49.7192 61.5828 49.8514 61.8042 49.9423 62.0652C50.032 62.3251 50.0768 62.6212 50.0768 62.9535C50.0768 63.2525 50.0371 63.532 49.9578 63.7918C49.8785 64.0506 49.752 64.2783 49.5783 64.4749C49.4047 64.6704 49.177 64.8228 48.8953 64.932C48.6147 65.0412 48.2726 65.0959 47.8689 65.0959H46.9703H46.5373ZM47.0755 64.6457H47.8724C48.2772 64.6457 48.5997 64.5715 48.8401 64.4232C49.0804 64.2748 49.2535 64.0724 49.3593 63.816C49.4639 63.5584 49.5162 63.2675 49.5162 62.9432C49.5162 62.6948 49.4852 62.4694 49.4231 62.267C49.3598 62.0646 49.2644 61.891 49.1367 61.7461C49.0091 61.6012 48.8452 61.4897 48.6452 61.4115C48.4451 61.3344 48.2093 61.2959 47.9379 61.2959H47.0755V64.1385V64.6457ZM52.5796 63.4348H52.0674L51.1411 61.8651C51.0422 61.6984 50.9467 61.5368 50.8547 61.3804C50.7639 61.2252 50.6587 61.0469 50.5391 60.8457H51.1566C51.2658 61.0366 51.359 61.2005 51.436 61.3373C51.5131 61.4741 51.5867 61.6041 51.6568 61.7271C51.7258 61.849 51.8023 61.9836 51.8863 62.1308L52.2968 62.8552H52.3502L52.7504 62.1566C52.8401 62.0002 52.9212 61.8582 52.9936 61.7306C53.0661 61.6041 53.142 61.4718 53.2213 61.3339C53.3007 61.1947 53.3938 61.032 53.5008 60.8457H54.1062L53.8043 61.3597C53.7031 61.5299 53.6042 61.6972 53.5076 61.8617L52.5796 63.4348ZM52.5952 65.0959H52.0553V62.9863H52.5952V64.4128V65.0959ZM56.3175 65.0959H55.8018C55.8294 64.8647 55.8575 64.637 55.8863 64.4128C55.915 64.1886 55.9455 63.9442 55.9777 63.6797L56.1537 62.2791L56.2434 61.5529C56.271 61.3275 56.3008 61.0918 56.333 60.8457H56.8747C56.9977 61.1481 57.1167 61.4396 57.2317 61.7202C57.3479 62.002 57.4623 62.2814 57.575 62.5585L58.2477 64.211H58.2908L58.9583 62.562C59.071 62.2802 59.1843 62.0002 59.2981 61.722C59.4108 61.4437 59.5276 61.1516 59.6483 60.8457H60.1916C60.2215 61.0883 60.2497 61.3218 60.2762 61.546C60.3026 61.7703 60.3331 62.0135 60.3676 62.2756L60.5401 63.6918L60.6298 64.4111C60.6574 64.633 60.685 64.8613 60.7126 65.0959H60.1968C60.152 64.7175 60.1083 64.3588 60.0657 64.0195C60.0243 63.6803 59.9858 63.3635 59.9502 63.0691L59.7949 61.7996H59.757L59.2171 63.1674C59.086 63.4986 58.9549 63.8309 58.8238 64.1644L58.4564 65.0959H58.0907C58.0194 64.9153 57.9401 64.7164 57.8527 64.499C57.7653 64.2829 57.675 64.0615 57.5819 63.835C57.4899 63.6084 57.4002 63.3888 57.3128 63.176L56.7556 61.7996H56.716L56.5625 63.0657C56.5257 63.3623 56.4871 63.6803 56.4469 64.0195C56.4066 64.3588 56.3635 64.7175 56.3175 65.0959ZM64.3073 65.0959H61.6613V60.8457H64.3004V61.308H61.8907L62.1874 60.9233V65.0148L61.92 64.6336H64.3073V65.0959ZM62.8946 63.1674H62.0718V62.7172H64.1813V63.1674H63.5932H62.8946ZM67.8468 65.0959H65.199V60.8457H67.8399V61.308H65.4285L65.7269 60.9233V65.0148L65.4595 64.6336H67.8468V65.0959ZM66.4341 63.1674H65.6113V62.7172H67.7208V63.1674H67.1326H66.4341ZM70.3651 65.0959H69.827V60.9233L70.0408 61.3252H68.3694V60.8457H71.8192V61.3252H70.1478L70.3651 60.9233V64.4128V65.0959ZM73.7891 65.1597C73.6131 65.1597 73.4349 65.143 73.2543 65.1097C73.0749 65.0775 72.9094 65.0366 72.7576 64.9872C72.6058 64.9389 72.4827 64.89 72.3884 64.8406L72.4402 64.33C72.5736 64.4036 72.7121 64.468 72.8559 64.5232C72.9996 64.5772 73.1462 64.6192 73.2957 64.6491C73.4464 64.679 73.5999 64.694 73.7563 64.694C73.9334 64.694 74.0932 64.6698 74.2358 64.6215C74.3772 64.5732 74.4893 64.4956 74.5721 64.3887C74.6549 64.2829 74.6964 64.1431 74.6964 63.9695C74.6964 63.8189 74.6532 63.6947 74.567 63.5969C74.4819 63.498 74.3583 63.4129 74.1961 63.3416C74.034 63.2703 73.8379 63.1985 73.6079 63.126C73.3377 63.0409 73.1071 62.9489 72.9162 62.85C72.7254 62.75 72.5799 62.627 72.4798 62.4809C72.3798 62.3349 72.3298 62.1486 72.3298 61.922C72.3298 61.7024 72.3821 61.5052 72.4867 61.3304C72.5902 61.1556 72.7455 61.0176 72.9525 60.9164C73.1595 60.8164 73.4159 60.7664 73.7218 60.7664C73.8483 60.7664 73.9736 60.7756 74.0978 60.794C74.222 60.8112 74.341 60.8354 74.4549 60.8664C74.5676 60.8975 74.6705 60.932 74.7636 60.9699C74.8579 61.0067 74.9378 61.0452 75.0034 61.0855L74.9482 61.5978C74.8274 61.5161 74.6998 61.4483 74.5653 61.3942C74.4296 61.339 74.295 61.2982 74.1616 61.2718C74.0294 61.2453 73.9063 61.2321 73.7925 61.2321C73.6315 61.2321 73.4837 61.2557 73.3492 61.3028C73.2135 61.3511 73.1048 61.4241 73.0232 61.5219C72.9404 61.6208 72.899 61.7473 72.899 61.9013C72.899 62.037 72.9335 62.1497 73.0025 62.2394C73.0726 62.328 73.1825 62.4079 73.3319 62.4792C73.4826 62.5493 73.6758 62.6224 73.9115 62.6982C74.253 62.8052 74.5221 62.9139 74.7188 63.0243C74.9143 63.1346 75.0528 63.2623 75.1345 63.4072C75.2173 63.5521 75.2587 63.7297 75.2587 63.9402C75.2587 64.1725 75.2075 64.38 75.1052 64.5629C75.0028 64.7457 74.8435 64.8906 74.6274 64.9975C74.4112 65.1056 74.1317 65.1597 73.7891 65.1597ZM77.7235 65.0959H77.1923V60.8457H79.7831V61.3114H77.4941L77.7235 60.9233V64.4128V65.0959ZM78.3738 63.1933H77.5959V62.7448H79.6641V63.1933H79.0724H78.3738ZM82.2376 65.1614C81.8432 65.1614 81.5224 65.093 81.2751 64.9561C81.0267 64.8205 80.8445 64.629 80.7283 64.3818C80.6122 64.1345 80.5541 63.8459 80.5541 63.5159V60.8457H81.0906V63.4624C81.0906 63.7188 81.1285 63.9396 81.2044 64.1247C81.2803 64.3087 81.4022 64.4502 81.5701 64.5491C81.738 64.6468 81.9605 64.6957 82.2376 64.6957C82.5182 64.6957 82.7413 64.6468 82.9069 64.5491C83.0736 64.4502 83.1938 64.3087 83.2674 64.1247C83.3398 63.9396 83.376 63.7171 83.376 63.4572V60.8457H83.9125V63.5159C83.9125 63.8459 83.8538 64.1345 83.7365 64.3818C83.6204 64.629 83.4387 64.8205 83.1915 64.9561C82.9454 65.093 82.6274 65.1614 82.2376 65.1614ZM85.477 65.0959H84.9647V60.8457H85.4511C85.7052 61.2033 85.9496 61.5483 86.1842 61.8806C86.4188 62.2118 86.6499 62.5384 86.8776 62.8604L87.7987 64.1592H87.8435V60.8457H88.3558V65.0959H87.8763L87.2122 64.1558C86.9799 63.8269 86.7247 63.4658 86.4464 63.0726L85.5201 61.7634H85.477V64.4128V65.0959Z" fill="url(#paint1_linear_267_48738)"/>
<path d="M49.9218 34.6731C46.9488 34.6731 43.9757 34.6645 41.0027 34.6817C40.5749 34.6838 40.3334 34.5489 40.1196 34.1704C37.1575 28.9186 34.1837 23.6733 31.1984 18.4347C30.9927 18.0731 31.0121 17.8058 31.2109 17.4593C34.214 12.2104 37.2084 6.95529 40.1899 1.69365C40.3952 1.33211 40.6305 1.2124 41.0369 1.2124C47.0001 1.2231 52.9633 1.2231 58.9265 1.2124C59.3267 1.2124 59.5595 1.32366 59.767 1.69158C62.7054 6.89564 65.6592 12.091 68.6284 17.2774C68.9107 17.7694 68.9087 18.1396 68.6284 18.6315C65.6898 23.7541 62.7673 28.886 59.8612 34.0271C59.5895 34.5084 59.2903 34.6902 58.7318 34.6838C55.7951 34.6558 52.8585 34.6708 49.9196 34.6708L49.9218 34.6731ZM43.7682 8.2086V29.0499C49.676 25.6962 55.4914 22.3935 61.4054 19.0356C55.526 15.427 49.647 11.8181 43.7682 8.2086ZM44.3823 7.47069C50.1678 11.0212 55.8379 14.5014 61.6365 18.0604C61.5744 17.5919 61.5468 17.2797 61.4909 16.9737C60.6781 12.4394 59.8612 7.90709 59.0505 3.37267C58.9372 2.73739 58.9329 2.72238 58.2976 2.92989C54.6427 4.11672 50.9881 5.30455 47.3338 6.49336C46.3927 6.79919 45.4559 7.11364 44.3799 7.46862L44.3823 7.47069ZM42.7009 28.6456V8.46527C39.2873 11.7464 35.97 14.9354 32.6012 18.1737C35.9549 21.6515 39.2702 25.0909 42.7009 28.6478V28.6456ZM44.5767 29.7064C44.7799 29.7835 44.8741 29.8306 44.9703 29.8541C49.2672 30.9235 53.5664 31.9952 57.8657 33.0603C58.5586 33.2314 58.5565 33.2186 58.7169 32.5342C59.6366 28.5859 60.5605 24.6374 61.4781 20.689C61.5189 20.5137 61.5316 20.3319 61.5765 20.0218C55.8636 23.2749 50.2768 26.4598 44.5746 29.7066L44.5767 29.7064ZM41.3986 2.19646C41.4926 2.44036 41.5483 2.60699 41.6211 2.76326C42.1599 3.92464 42.7267 5.07325 43.2294 6.24963C43.4198 6.69466 43.6382 6.71587 44.0421 6.58323C48.0291 5.27644 52.0224 3.98449 56.0112 2.68633C56.4114 2.55576 56.8069 2.40828 57.2026 2.26925C57.194 2.24562 57.1837 2.21992 57.175 2.19646H41.3986ZM60.4153 4.76949C60.3747 4.78674 60.332 4.80382 60.2912 4.82297C60.3875 5.362 60.4858 5.9031 60.58 6.44213C61.2665 10.3094 61.9575 14.1742 62.6333 18.0435C62.6975 18.4135 62.8151 18.5161 63.1939 18.4219C64.0557 18.2103 64.9326 18.0499 65.7988 17.8574C66.3656 17.7311 66.9281 17.5857 67.5784 17.4296C65.1909 13.209 62.8025 8.98901 60.4132 4.76949H60.4153ZM32.9457 16.3281L33.0226 16.3986C33.0783 16.3624 33.1425 16.3324 33.1917 16.2853C36.2546 13.3571 39.3133 10.4268 42.3802 7.50519C42.6262 7.27198 42.607 7.07948 42.4785 6.80574C41.931 5.64868 41.4029 4.48057 40.8616 3.31937C40.8018 3.18897 40.7077 3.07547 40.5815 2.87883C38.0021 7.42395 35.474 11.8751 32.9457 16.3281ZM67.6554 18.3664C65.9914 18.7214 64.4962 19.0294 63.014 19.378C62.8558 19.4143 62.6804 19.6797 62.6354 19.8679C61.7008 23.7903 60.7811 27.7197 59.8635 31.6467C59.8359 31.7664 59.8334 31.8927 59.8186 32.0167C59.8484 32.0231 59.8785 32.0317 59.9083 32.0381C62.4643 27.5292 65.0182 23.0227 67.6576 18.3664H67.6554ZM56.2508 33.7235L56.2638 33.6594C56.1546 33.6166 56.0499 33.5631 55.9365 33.5352C51.971 32.5364 48.0034 31.5439 44.0399 30.5387C43.6444 30.4383 43.3727 30.4831 43.1675 30.8831C42.9236 31.3558 42.6155 31.7965 42.3417 32.252C42.0637 32.716 41.792 33.1845 41.4755 33.7215H56.251L56.2508 33.7235ZM40.6691 33.1931C41.2466 32.2263 41.7278 31.3578 42.2755 30.5345C42.5663 30.0961 42.5342 29.8287 42.1663 29.4501C39.4841 26.7037 36.8257 23.9338 34.1585 21.1747C34.0451 21.057 33.9189 20.9522 33.7992 20.8432C33.7692 20.8689 33.7391 20.8923 33.7095 20.918C36.0088 24.9712 38.3056 29.0244 40.6695 33.1952L40.6691 33.1931Z" fill="url(#paint2_linear_267_48738)"/>
</g>
<defs>
<linearGradient id="paint0_linear_267_48738" x1="4.75488" y1="48.6584" x2="97.3269" y2="48.6584" gradientUnits="userSpaceOnUse">
<stop stop-color="#2563EB"/>
<stop offset="1" stop-color="#9333EA"/>
</linearGradient>
<linearGradient id="paint1_linear_267_48738" x1="11.7236" y1="62.9639" x2="88.3558" y2="62.9639" gradientUnits="userSpaceOnUse">
<stop stop-color="#2563EB"/>
<stop offset="1" stop-color="#9333EA"/>
</linearGradient>
<linearGradient id="paint2_linear_267_48738" x1="68.8721" y1="17.8891" x2="31.1261" y2="17.8891" gradientUnits="userSpaceOnUse">
<stop stop-color="#9333EA"/>
<stop offset="1" stop-color="#2563EB"/>
</linearGradient>
<clipPath id="clip0_267_48738">
<rect width="100" height="67.7996" fill="white"/>
</clipPath>
</defs>
</svg>
