<svg width="279" height="334" viewBox="0 0 279 334" fill="none" xmlns="http://www.w3.org/2000/svg">
<path d="M229.967 106.126C241.724 115.683 246.271 132.111 244.727 147.187C243.184 162.263 236.396 176.302 228.825 189.433C216.137 211.422 200.933 231.953 183.572 250.475C179.639 230.367 169.383 211.549 154.601 197.341" fill="#FD7765"/>
<path d="M174.056 59.4397C162.552 49.5655 145.572 48.0431 131.023 52.2508C116.453 56.4584 103.871 65.6349 92.3037 75.4245C72.9336 91.8322 55.4455 110.46 40.3047 130.843C60.7955 131.118 81.1596 137.841 97.7595 149.851" fill="#FD7765"/>
<path d="M206.917 79.2516C207.869 87.2229 213.473 95.5959 219.034 100.036C225.272 105.026 232.843 107.098 240.413 106.591L157.16 206.306C142.569 223.792 116.538 226.139 99.0495 211.528C81.5614 196.939 79.2141 170.911 93.8263 153.425L179.342 50.9822C172.618 66.1635 192.791 80.9431 206.917 79.2516Z" fill="#FDB03F"/>
<path d="M187.42 41.3405L250.754 94.2004L272.175 68.5528L278.561 14.6357C279.661 5.35351 270.948 -2.04686 261.961 0.511559L208.82 15.6929L187.42 41.3405Z" fill="#D4F3F5"/>
<path d="M251.367 3.55625L261.983 0.532678C270.97 -2.02574 279.682 5.37463 278.583 14.6568L277.335 25.2288L251.367 3.55625Z" fill="#002C44"/>
<path d="M-0.000484098 333.931C2.36791 325.304 5.41307 316.867 9.0714 308.706C10.9111 304.625 12.8989 300.608 15.0347 296.696C16.811 293.461 19.6234 290.12 20.8922 286.674C23.3451 280.013 10.0018 279.654 6.23773 277.666C1.96616 275.404 3.23492 272.486 5.15924 268.765C9.05017 261.28 13.8505 254.239 19.7715 248.234C32.8822 234.892 52.8021 226.984 70.7342 232.355C74.1811 233.391 78.22 235.209 79.9752 238.592C85.4309 249.164 89.8928 260.096 86.9958 272.338C84.9869 280.817 80.1021 288.344 74.5195 295.004C56.0375 317.015 28.6529 331.351 -0.000484098 333.931Z" fill="#FD7765"/>
<path d="M34.1725 290.987C35.5893 285.849 37.3867 280.817 39.5648 275.975C40.6644 273.543 41.8486 271.154 43.1174 268.828C44.1747 266.904 45.8453 264.917 46.6066 262.866C48.0657 258.891 40.1147 258.7 37.8943 257.495C35.3567 256.142 36.0967 254.408 37.2598 252.188C39.5859 247.748 42.4408 243.54 45.9511 239.967C53.7541 232.017 65.6172 227.323 76.275 230.516C78.3262 231.129 80.737 232.228 81.7732 234.237C85.0297 240.538 87.673 247.029 85.9601 254.324C84.7548 259.356 81.8577 263.838 78.5377 267.813C67.5204 280.923 51.2165 289.465 34.1725 290.987Z" fill="#FDB03F"/>
<path d="M236.374 43.9835C237.326 51.9548 242.93 60.3278 248.491 64.768C254.729 69.758 262.3 71.8301 269.87 71.3226L160.184 202.69L96.8505 149.83L208.799 15.7352C202.054 30.8954 222.227 45.675 236.374 43.9835Z" fill="#01B8C1"/>
<path d="M225.864 59.1014C216.94 69.7791 208.017 80.478 199.093 91.1557C197.803 92.6992 195.583 90.4791 196.873 88.9356C205.796 78.2579 214.72 67.559 223.644 56.8813C224.955 55.3378 227.154 57.5791 225.864 59.1014Z" fill="white"/>
<path d="M242.782 75.0228C210.428 113.293 178.476 151.923 146.947 190.913C145.678 192.477 143.457 190.257 144.726 188.693C176.256 149.724 208.187 111.094 240.562 72.8027C241.873 71.2592 244.072 73.5004 242.782 75.0228Z" fill="white"/>
</svg>
