<svg width="223" height="194" viewBox="0 0 223 194" fill="none" xmlns="http://www.w3.org/2000/svg">
<path d="M82.7095 67.5983C83.217 75.6119 79.1992 84.8518 74.5258 90.2224C69.2815 96.2484 62.2186 99.6526 54.6694 100.519L154.544 183.594C172.053 198.162 198.063 195.773 212.633 178.266C227.203 160.759 224.813 134.752 207.304 120.183L104.723 34.8464C114.112 48.5265 96.941 66.6891 82.7095 67.5983Z" fill="#FD9143"/>
<path d="M95.0586 26.7905L42.2984 90.2012L16.6055 68.8246L0.597649 16.9374C-2.15138 8.01463 5.05952 -0.844689 14.3639 0.0645006L69.3657 5.41392L95.0586 26.7905Z" fill="#FDC0B8"/>
<path d="M25.3603 1.14292L14.3642 0.0645569C5.05983 -0.844632 -2.17221 8.01469 0.597962 16.9374L3.74878 27.1077L25.3603 1.14292Z" fill="#FD9143"/>
<path d="M47.3948 38.2084C47.9024 46.2219 43.8845 55.4618 39.2112 60.8324C33.9669 66.8584 26.904 70.2626 19.3547 71.1295L150.928 180.571L203.709 117.16L69.4082 5.45638C78.7761 19.1365 61.6052 37.3203 47.3948 38.2084Z" fill="#FD9143"/>
<path d="M60.2305 51.0003C70.9306 59.9019 81.6307 68.8035 92.3519 77.7051C93.8956 78.9949 96.1371 76.7748 94.5723 75.485C83.8722 66.5834 73.1721 57.6818 62.4509 48.7802C60.9072 47.5116 58.6657 49.7105 60.2305 51.0003Z" fill="white"/>
<path d="M46.4638 69.7128C85.204 101.534 123.585 133.758 161.627 166.425C163.15 167.736 165.391 165.516 163.847 164.205C125.826 131.559 87.4244 99.3143 48.6842 67.4927C47.1405 66.224 44.899 68.423 46.4638 69.7128Z" fill="white"/>
</svg>
