<svg width="40" height="41" viewBox="0 0 40 41" fill="none" xmlns="http://www.w3.org/2000/svg">
<g id="Social Network">
<g id="instagram">
<path d="M20 12.178C22.6506 12.178 23.0121 12.178 24.0964 12.178C25.0602 12.178 25.5422 12.4189 25.9036 12.5394C26.3855 12.7804 26.747 12.9008 27.1084 13.2623C27.4699 13.6237 27.7108 13.9852 27.8313 14.4671C27.9518 14.8286 28.0723 15.3105 28.1928 16.2743C28.1928 17.3587 28.1928 17.5996 28.1928 20.3707C28.1928 23.1418 28.1928 23.3828 28.1928 24.4671C28.1928 25.431 27.9518 25.9129 27.8313 26.2743C27.5904 26.7563 27.4699 27.1177 27.1084 27.4792C26.747 27.8406 26.3855 28.0816 25.9036 28.2021C25.5422 28.3225 25.0602 28.443 24.0964 28.5635C23.0121 28.5635 22.7711 28.5635 20 28.5635C17.2289 28.5635 16.988 28.5635 15.9036 28.5635C14.9398 28.5635 14.4578 28.3225 14.0964 28.2021C13.6145 27.9611 13.253 27.8406 12.8916 27.4792C12.5301 27.1177 12.2892 26.7563 12.1687 26.2743C12.0482 25.9129 11.9277 25.431 11.8072 24.4671C11.8072 23.3828 11.8072 23.1418 11.8072 20.3707C11.8072 17.5996 11.8072 17.3587 11.8072 16.2743C11.8072 15.3105 12.0482 14.8286 12.1687 14.4671C12.4096 13.9852 12.5301 13.6237 12.8916 13.2623C13.253 12.9008 13.6145 12.6599 14.0964 12.5394C14.4578 12.4189 14.9398 12.2984 15.9036 12.178C16.988 12.178 17.3494 12.178 20 12.178ZM20 10.3707C17.2289 10.3707 16.988 10.3707 15.9036 10.3707C14.8193 10.3707 14.0964 10.6117 13.494 10.8527C12.8916 11.0936 12.2892 11.4551 11.6867 12.0575C11.0843 12.6599 10.8434 13.1418 10.4819 13.8647C10.241 14.4671 10.1205 15.19 10 16.2743C10 17.3587 10 17.7201 10 20.3707C10 23.1418 10 23.3828 10 24.4671C10 25.5515 10.241 26.2743 10.4819 26.8768C10.7229 27.4792 11.0843 28.0816 11.6867 28.684C12.2892 29.2864 12.7711 29.5274 13.494 29.8888C14.0964 30.1298 14.8193 30.2502 15.9036 30.3707C16.988 30.3707 17.3494 30.3707 20 30.3707C22.6506 30.3707 23.0121 30.3707 24.0964 30.3707C25.1807 30.3707 25.9036 30.1298 26.506 29.8888C27.1084 29.6478 27.7108 29.2864 28.3133 28.684C28.9157 28.0816 29.1566 27.5996 29.5181 26.8768C29.759 26.2743 29.8795 25.5515 30 24.4671C30 23.3828 30 23.0213 30 20.3707C30 17.7201 30 17.3587 30 16.2743C30 15.19 29.759 14.4671 29.5181 13.8647C29.2771 13.2623 28.9157 12.6599 28.3133 12.0575C27.7108 11.4551 27.2289 11.2141 26.506 10.8527C25.9036 10.6117 25.1807 10.4912 24.0964 10.3707C23.0121 10.3707 22.7711 10.3707 20 10.3707Z" fill="white"/>
<path d="M20 15.19C17.1084 15.19 14.8193 17.4792 14.8193 20.3707C14.8193 23.2623 17.1084 25.5515 20 25.5515C22.8916 25.5515 25.1807 23.2623 25.1807 20.3707C25.1807 17.4792 22.8916 15.19 20 15.19ZM20 23.7442C18.1928 23.7442 16.6265 22.2984 16.6265 20.3707C16.6265 18.5635 18.0723 16.9972 20 16.9972C21.8072 16.9972 23.3735 18.443 23.3735 20.3707C23.3735 22.178 21.8072 23.7442 20 23.7442Z" fill="white"/>
<path d="M25.3012 16.2743C25.9666 16.2743 26.506 15.7349 26.506 15.0695C26.506 14.4041 25.9666 13.8647 25.3012 13.8647C24.6358 13.8647 24.0964 14.4041 24.0964 15.0695C24.0964 15.7349 24.6358 16.2743 25.3012 16.2743Z" fill="white"/>
</g>
</g>
</svg>
