<svg width="40" height="41" viewBox="0 0 40 41" fill="none" xmlns="http://www.w3.org/2000/svg">
<g id="Social Network">
<path id="Vector" d="M30.6 15.2707C29.9 15.5707 29.1 15.7707 28.3 15.8707C29.1 15.3707 29.8 14.5707 30.1 13.6707C29.3 14.1707 28.5 14.4707 27.5 14.6707C26.8 13.8707 25.7 13.3707 24.6 13.3707C22.4 13.3707 20.6 15.1707 20.6 17.3707C20.6 17.6707 20.6 17.9707 20.7 18.2707C17.4 18.0707 14.4 16.4707 12.4 14.0707C12.1 14.6707 11.9 15.3707 11.9 16.0707C11.9 17.4707 12.6 18.6707 13.7 19.3707C13 19.3707 12.4 19.1707 11.9 18.8707C11.9 20.7707 13.3 22.4707 15.1 22.7707C14.8 22.8707 14.4 22.8707 14 22.8707C13.7 22.8707 13.5 22.8707 13.2 22.7707C13.7 24.3707 15.2 25.5707 17 25.5707C15.6 26.6707 13.9 27.2707 12 27.2707C11.7 27.2707 11.4 27.2707 11 27.1707C12.8 28.2707 14.9 28.9707 17.2 28.9707C24.6 28.9707 28.6 22.8707 28.6 17.5707V17.0707C29.4 16.7707 30.1 16.0707 30.6 15.2707Z" fill="white"/>
</g>
</svg>
